<svg xmlns="http://www.w3.org/2000/svg" width="29.576" height="27.853" viewBox="0 0 29.576 27.853"><path d="M27.733,19.635l-1.316,4.914-.037.01-1.438,5.367-9.3-2.49-.111.029L5.747,24.843l-.017-.064-2.605-.7.493-1.841.032.009L8.479,4.226l-.032-.009.509-1.9L26.061,6.9l.016-.056L30.788,8.11,27.716,19.57l.017.065ZM28.382,9.5,10.359,4.669,6.8,17.949l18.021,4.828L28.382,9.5ZM12.234,13.392l1.194,2.045,3.107-2.925,1.583,2.766L22.3,11.589l1.047,8.559L9.528,16.442l2.706-3.05Zm.893-2.012a1.473,1.473,0,1,1,1.8-1.042A1.473,1.473,0,0,1,13.127,11.38Zm8.513-6.9-.414.111-3.8-1.017,5.6-1.5L23.895,5.3,21.7,4.717l-.065-.238ZM3.617,9.309l1.242,4.635L3.842,17.738,1.212,7.92,6.88,6.4l-.587,2.19-2.676.718ZM7.058,29.736l-1.018-3.8,7.6,2.036L7.058,29.736Z" transform="translate(-1.212 -2.073)" fill="#edf0f2"/></svg>