<svg xmlns="http://www.w3.org/2000/svg" width="24.725" height="29.656" viewBox="0 0 24.725 29.656"><g transform="translate(-549.275 -187.206)"><path d="M553.95,198.142h1.69V193.6l1.966-6.4H555.89l-1.043,4.371h-.109l-1.1-4.371h-1.7l2.009,6.6Z" transform="translate(1.112)" fill="#edf0f2"/><path d="M555.885,195.317a2.254,2.254,0,0,0,.591,1.637,2.092,2.092,0,0,0,1.576.608,2.159,2.159,0,0,0,1.605-.589,2.2,2.2,0,0,0,.585-1.627V191.18a2.029,2.029,0,0,0-.6-1.509,2.089,2.089,0,0,0-1.526-.585,2.317,2.317,0,0,0-1.629.555,1.932,1.932,0,0,0-.606,1.493Zm1.543-4.244a.57.57,0,0,1,.173-.428.625.625,0,0,1,.446-.16.7.7,0,0,1,.482.16.548.548,0,0,1,.183.428v4.4a.706.706,0,0,1-.179.51.65.65,0,0,1-.486.186.576.576,0,0,1-.456-.181.74.74,0,0,1-.163-.514Z" transform="translate(2.756 0.784)" fill="#edf0f2"/><path d="M560.9,197.417a1.78,1.78,0,0,0,.873-.258,3.31,3.31,0,0,0,.863-.751v.891h1.5V189.23h-1.5v6.124a2.092,2.092,0,0,1-.465.435.808.808,0,0,1-.418.169.349.349,0,0,1-.3-.126.708.708,0,0,1-.094-.415V189.23h-1.5v6.744a1.815,1.815,0,0,0,.265,1.081A.906.906,0,0,0,560.9,197.417Z" transform="translate(4.412 0.844)" fill="#edf0f2"/><path d="M560.021,201.148a.666.666,0,0,0-.315.081,1.071,1.071,0,0,0-.312.245V206.5a1.3,1.3,0,0,0,.354.285.792.792,0,0,0,.364.086.469.469,0,0,0,.4-.17.9.9,0,0,0,.132-.555v-4.166a1.013,1.013,0,0,0-.16-.619A.548.548,0,0,0,560.021,201.148Z" transform="translate(4.219 5.812)" fill="#edf0f2"/><path d="M563.926,201.17a.589.589,0,0,0-.514.218,1.305,1.305,0,0,0-.154.728v.816h1.325v-.816a1.278,1.278,0,0,0-.157-.728A.568.568,0,0,0,563.926,201.17Z" transform="translate(5.829 5.822)" fill="#edf0f2"/><path d="M573.834,200.08a3.551,3.551,0,0,0-3.572-3.528q-4.01-.164-8.191-.166H561.2q-4.176,0-8.191.166a3.55,3.55,0,0,0-3.569,3.528q-.178,2.319-.164,4.63-.011,2.314.164,4.632a3.551,3.551,0,0,0,3.569,3.528q4.219.179,8.628.164,4.4.008,8.626-.164a3.552,3.552,0,0,0,3.572-3.528c.116-1.546.169-3.089.166-4.632S573.95,201.626,573.834,200.08Zm-19.207,9.944h-1.69v-9.35h-1.747v-1.588h5.184v1.588h-1.747Zm6.01,0h-1.5v-.89a3.322,3.322,0,0,1-.863.75,1.771,1.771,0,0,1-.873.256.916.916,0,0,1-.784-.358,1.848,1.848,0,0,1-.263-1.082v-6.744h1.5v6.185a.7.7,0,0,0,.095.415.351.351,0,0,0,.3.128.833.833,0,0,0,.419-.169,2.107,2.107,0,0,0,.463-.434v-6.125h1.5Zm5.772-1.672a2.12,2.12,0,0,1-.351,1.316,1.215,1.215,0,0,1-1.019.458,1.678,1.678,0,0,1-.785-.179,1.991,1.991,0,0,1-.64-.546v.622H562.1V199.085h1.515v3.521a2.328,2.328,0,0,1,.643-.56,1.394,1.394,0,0,1,.691-.194,1.268,1.268,0,0,1,1.087.517,2.555,2.555,0,0,1,.374,1.506Zm5.546-2.173h-2.869V207.7a1.81,1.81,0,0,0,.149.883.537.537,0,0,0,.506.247.6.6,0,0,0,.521-.21,1.813,1.813,0,0,0,.149-.92v-.561h1.544v.6a2.719,2.719,0,0,1-.565,1.87,2.151,2.151,0,0,1-1.685.626,1.994,1.994,0,0,1-1.585-.665,2.7,2.7,0,0,1-.578-1.832v-3.622a2.365,2.365,0,0,1,.633-1.71,2.188,2.188,0,0,1,1.646-.662,2.015,2.015,0,0,1,1.58.612,2.54,2.54,0,0,1,.554,1.76Z" transform="translate(0 3.827)" fill="#edf0f2"/></g></svg>