<svg id="ac908060-9dcc-413a-8ecc-e1661f219178" data-name="Слой 1" xmlns="http://www.w3.org/2000/svg" viewBox="0 0 200 73.15602">
  <title>btn-bg</title>
  <g>
    <path d="M71.81958,61.03766c.01782.02612.03516.05383.05286.08038v-.236Z" fill="#e4003b"/>
    <path d="M181.39954,14.87286h0C181.40222,14.88739,181.40344,14.894,181.39954,14.87286Z" fill="#e4003b"/>
    <path d="M199.6709,40.88733c-.53967-1.20856-.54578-1.18988.033-2.24732a3.90931,3.90931,0,0,1-1.60266-.52893,2.54675,2.54675,0,0,1-.658-1.09491,21.03106,21.03106,0,0,0,.9516-3.1538,2.9093,2.9093,0,0,0-.64075.99609,6.6852,6.6852,0,0,0-.4336-1.80469c-.13421-.35846-.25939-.74115-.39782-1.08783-.28327-.70935-.57276-1.40185-.85962-2.10125l-.0542.14947c.07019.2738.14044.54767.2182.85107-.488-.01782-.537.16834-.37781,1.34058.0401.29511.095.58441.11359.88873a5.863,5.863,0,0,1-.05.71015c-.48859-1.11658-1.0246-1.46656-1.65894-1.261-.18274.0592-.37646-.113-.632-.20258.01361-.03106-.04523.10309-.14655.334.02551-.82684-.01776-1.41095-.37524-1.29486q.026.79393.05206,1.59045l-.10382.1004a8.19363,8.19363,0,0,1-.39612-1.36883c-.06909-.51459-.166-.59448-.33362-.61481-.19861-.02411-.39856-.08661-.502-.87811.20056.02594.34765.04669.49487.06348.14276.01629.34.1939.41919.01483.40594-.91809.88422-.54187,1.33484-.64258.20679-.0462.41449-.06427.62176-.09509l.00019-.44745c-.35486-.02106-.71-.02954-1.06452-.068a4.78305,4.78305,0,0,1-.60119-.14306c-.08759.09668-.23627.4104-.3136.31726a1.97837,1.97837,0,0,1-.5503-1.0567,5.86,5.86,0,0,1,.36408-1.52857c-.22321-.28259-.42658-.38452-.45911.675-.0169.55158-.09283.97876-.33416.33362-.08045-.215-.24457-.24121-.374-.29712-.16022-.06927-.33258-.233-.2091-.6828.29858-1.08795-.06922-.9447-.2699-1.10376-.23712-.18793-.47894-.33521-.71771-.50922a7.76789,7.76789,0,0,0-.88141-.64611c-.58441-.30134-1.1756-.5127-1.75983-.81647-.12219-.0636-.22632-.366-.33874-.55835l.04986-.3429a4.67081,4.67081,0,0,1,1.52948.0373,6.86566,6.86566,0,0,1,1.44385.96838l.06946-.465a5.06544,5.06544,0,0,0-.63135-.80273c-.7981-.63452-1.60211-1.2182-2.40607-1.80121-.30823-.22351-.54669-.471-.52569-1.54968.01818-.93579-.4267-2.11145-.77851-2.1709.08155.53223.152,1.01636.22968,1.49243.08142.49915.16974.9906.26233,1.52789-.93927.31336-1.31171-.381-1.16828-2.05517h-1.04712c.68982.55566.7945.74212.98145,1.97595-.09259-.11255-.16559-.20239-.23889-.29-.26056-.31122-.51673-.91467-.77991.04926-.03143.115-.22491-.03113-.33606-.11872a6.16017,6.16017,0,0,1-.48779-.47967c.505,1.79089,1.294,1.10235,1.94116,1.78393-.55328.12641-1.10419.07837-1.65289.149-.23413.03015-.57331-.33948-.65454.744a.14327.14327,0,0,1-.16455.10266,6.19393,6.19393,0,0,1-.55347-.33508l.14319-.64783-.34491-.30414-.01929-.25665a4.15529,4.15529,0,0,0,.53223-.51679,1.27291,1.27291,0,0,0,.13678-.37359c-.34687.19055-.61689.33874-.88361.48523l-.11047-.7699c.14386-.17133.3164-.246.38977-.51a5.82526,5.82526,0,0,0-.08637-1.11066l-.24829.70734c-.26282-.07868-.48-.27112-.67828-.1803-.72559.3324-1.14124-.77295-1.52356-2.09448-.17426-.6023-.10071-.97345.15918-1.1651.09167-.06757.187-.18585.27728-.16767.476.09577.95087.22779,1.39594.3396l-.02454-.133c.37262-.76953.71887-1.48468,1.06519-2.19989l-.01276-.17365q-1.71277,1.07932-3.43317,2.16346l.09485.52856c-.31817.35583-.3114.34161-.48376-.22424-.04468-.14667-.14789-.25244-.22181-.24323-.47741.05945-.785-.63666-.85711-1.89685a8.23374,8.23374,0,0,0-.17792-1.01813c-.18512,1.55243-.30579,1.7381-.79864,1.15448-.18464-.21869-.35383-.52551-.53522-.765-.13056-.1723-.26978-.29944-.45911-.50543.10968,1.148.66193,2.00384.1452,3.14233l.26374.47614c-.57233.092-1.19263-1.32917-1.31177-2.894-.07-.91894-.29309-1.43847-.641-1.44268a.26831.26831,0,0,0-.21149.22552,1.37356,1.37356,0,0,0,.06885.54419,1.46923,1.46923,0,0,1-.071,1.31024,2.16144,2.16144,0,0,1-.27917.39246c.16241.11505.31494.223.46741.33105l-.01148.26233a5.47378,5.47378,0,0,1-3.19189.79419l-.04462-.28534c.09747-.31268.195-.62542.29627-.95031-.13654-.06434-.3031-.00946-.35981-.19068-.44494-1.42145-1.03973-1.24774-1.61694-1.03265a10.67559,10.67559,0,0,0-1.39575.84613c-.14813.08581-.31842.19189-.45447.0827a12.18737,12.18737,0,0,1-.98993-.98187,10.843,10.843,0,0,0-.28595-1.0625c-.07281-.18689-.2572-.39063-.29748-.29993-.39313.88519-.77863.48786-1.16877.04212-.19128.69708-.67.73877-1.02722.12072-.46441.45453-.48694,1.49323-.50293,2.5398-.00378.25091-.00305.5025-.00873.75317-.0285,1.255-.39227,1.73975-.884,1.09357l.248-.52191c-.15888-.21118-.32965-.43811-.538-.71491-.01355.07965-.04736.27863-.101.59375-.1665-1.319-.37219-1.87134-.7655-2.223-.53272-.47626-.65241-.28876-.746,1.14832-.048.737-.10284,1.471-.15454,2.20636l-.16168.02093q-.14768-1.415-.29577-2.82941a1.85967,1.85967,0,0,1,.22991-1.30651,5.40256,5.40256,0,0,0,.75074-2.35407,2.71779,2.71779,0,0,0-.9173-.10467c-.18091.03991-.30939.35308-.12769.91479a2.66586,2.66586,0,0,1,.07673.829c-.08442,1.25586-.18128,2.50757-.296,3.74664a1.67034,1.67034,0,0,1-.20935.69434c-.28248-.28369-.6504-.10413-.82514-1.0285-.0592-.31342-.23181-.81171-.27576-.76166-.44854.51019-.69018-.42243-.98761-.90619-.47338-.77008-.61-.66876-.81677.7193-.03888.26068-.07928.51971-.11987.78552-.3349-.55652-1.52966-.79187-1.6167-.29309l.1272.66126c-.15821.20739-.29047.38073-.48389.6344-.25671-1.12171-.53363-2.25-.77679-3.42621-.13721-.6637-.04706-1.15345.26287-1.25458a2.21245,2.21245,0,0,0,.22968-.10992c-.15515-.58954-.2887-1.097-.43115-1.63837.18249-.183.2959-.29675.40936-.41059l-.01587-.27539c-.22882.03363-.45752.07221-.6864.0998-.43286.05206-.92725.63195-1.19806-1.03473a10.67419,10.67419,0,0,0-.07141,1.6806c.04315.707.16345,1.38074.21027,2.08722a11.05971,11.05971,0,0,1-.09406,2.95392c-.3291-.76312-.35083-2.06159-.86371-2.2525-.546-.20331-.64624,1.12494-.99878,1.60669.32508.57318.52185.19775.72168-.43323.23065-.72815.47009-.68042.57508.1076.13739,1.03131.259,2.08747.33911,3.15772.07879,1.053-.11182,1.49487-.52521,1.438a6.54518,6.54518,0,0,1-1.28766-.15619,1.16975,1.16975,0,0,1-.51587-.77362c-.23926-.89-.41839-1.89234-.616-2.85736-.09808-.47913-.06585-.75574.1734-.77912a1.95441,1.95441,0,0,0,.53882-.23163l-.019-.273-.48523-.11023c.19006-.65661.35327-1.22039.51654-1.78424l-.14282-.29992c-.29.89087-.606,1.73388-.86249,2.6867a2.50375,2.50375,0,0,0,.25971,2.14808c.08337.10552.16528.21875.2478.32849l-.04065.29925c-.12457-.08124-.27246-.07776-.369-.2605-.22821-.43206-.43207-.95263-.66846-1.48889-.05475.07428-.17694.2403-.30066.40833.11835.44079.22724.84662.33362,1.2428-.47857,1.27789-.81616,1.36035-.97034.27191-.57135,1.0318-1.21612.23535-1.74554.46362-.07208.36786-.12268.62634-.17523.89465a2.39531,2.39531,0,0,1,.04931,2.0658,1.36829,1.36829,0,0,0-.482.42059c-.19.23548-.3753.70124-.56329.70355a6.79141,6.79141,0,0,1-1.52484-.31738l.36309-.418c-.2077-.16095-.34277-.25818-.47595-.37091-.13244-.11218-.26306-.23987-.39447-.36078.73486-.043,1.47138-.6535,2.20136.5091-.06549-.36145-.09912-.54724-.14234-.786.259-.08564.48279-.15961.70667-.23358l-.0055-.31025c-.52282-.06329-1.04638-.10015-1.56829-.19665a18.86809,18.86809,0,0,1-1.92395-.45435c-.116-.03424-.22065-.331-.33051-.50659.08618-.23614.12116-.27856.15363-.26782.61645.20422,1.23236.41992,1.84906.61835.0932.03.235.08752.27758-.04157.25891-.7857.54346-.294.81934-.17718.18225.07714.36249.18664.54364.28161a1.71293,1.71293,0,0,0-.28272-.85559c-.534-.37207-1.02947-1.09643-1.62817-.8772-.42877.15711-.911.79267-1.29657-.38867-.23389,1.37586-.78338.29608-1.11554,1.15137l.43494.17291c-.171.28308-.364.51727-.54627.46979-.22973-.05981-.45166-.34283-.67468-.54694a.45.45,0,0,1-.09088-.2398c-.07416-.86151-.34522-.68134-.65747-.86768.18622.80353-.05176.7981-.10407.86652a5.91545,5.91545,0,0,1,.17292,1.27716,3.3491,3.3491,0,0,1-.44074.9823c.38751.62152.69318.56067.99152-.108.0589-.132.14422-.26013.21722-.25952.68274.00537,1.241.78717,1.73926,1.9336-.60358-.20679-1.07953-1.64124-1.7439-1.244-.04821,1.05682-.17456,1.24383-.50579.8811a.22863.22863,0,0,0-.29957-.04144,4.06575,4.06575,0,0,0-.50854.4306c-.07239-.795-.41968-.99914-.67487-.39441a4.72314,4.72314,0,0,0-.13733.81183c.1026.06806.20826.215.30726.18891a5.31274,5.31274,0,0,0,.761-.32392l.06678.39118a3.29146,3.29146,0,0,0-.36878.61236,5.22837,5.22837,0,0,0-.14722.80408c.09974.007.20258.05572.29828.00751.07538-.038.14691-.29688.21137-.27552.09027.02991.17236.229.258.35572-.0636.15222-.126.43-.1911.43457a1.22037,1.22037,0,0,1-.77051-.10974,7.27377,7.27377,0,0,1-.90551-.839c-.16284-.15046-.32923-.27423-.50556-.4195a5.1967,5.1967,0,0,0,.21363-2.12488c-.1496.33606-.27326.61377-.40479.90931l-.09473-1.19794-.12286-.01825c-.07263.81183-.1452,1.62366-.21857,2.44409-.451-1.63678-.451-1.63678-.70953-1.22241l.28955.56879c-.28918-.03766-.48932.03509-.65961-.119a1.42753,1.42753,0,0,1-.29058-.79639c.03515-.71655.15216-1.40546.23712-2.10516l.09979-.05194q.06646.9147.13293,1.82867c.49237-.20081.60285-.63287.46631-1.807-.017-.14624-.01007-.31085-.0249-.45965a14.41838,14.41838,0,0,0-.56116-2.78144l-.11133.1272c.04328.527.08655,1.054.1457,1.775-.20093-.09131-.41394-.06079-.56842-.29517a6.03,6.03,0,0,1-.35926-1.15546c-.02911.35706-.06958.71241-.08575,1.07514-.06781,1.52148-.13635,3.04345-.18488,4.56952a5.97473,5.97473,0,0,0,.104.94861c.08245.61285.17041,1.22064.2561,1.83056l-.10931.14441a3.286,3.286,0,0,1-.2403-.83612,4.94524,4.94524,0,0,0-.49573-1.97864c-.21991-.56585-.40851-1.21509-.62787-1.78253-.06622-.17132-.19342-.28729-.28546-.26031a.9774.9774,0,0,0-.47931.36224,7.1647,7.1647,0,0,0-.45916.90344c.37817.25031.63562.42072.9331.61756-.37176,1.21423-.8858.77032-1.30328,1.22467.22143.23071.44287.46142.72156.75189-.48749.7937-.7887.60327-1.1485-.51593.04345-.60352.46124-1.10517.10516-1.8031l-.47607,1.6134a2.80914,2.80914,0,0,1,.029.59631c-.065.18348-.19428.37207-.27179.317-.07452-.05292-.11737-.41156-.14038-.50232a12.1621,12.1621,0,0,1-1.37671.16858c-.088.002-.17712-.30994-.26575-.47711a3.444,3.444,0,0,1,.28064-.42944c.21-.22834.43036-.393.63764-.6355.24023-.28107.4555-.71216.69018.10071.08887.30786.22144.3753.3855-.16041a23.61811,23.61811,0,0,1,1.07709-2.67028,5.34516,5.34516,0,0,1,.46942-.76319,5.93223,5.93223,0,0,0-.631-.31842c-.09229-.0343-.19245.08167-.28534.05158-.1933-.06262-.4375.37066-.57019-.36981-.00482-.02686-.07617.01886-.11518.04461a2.84244,2.84244,0,0,1-2.86279.07892l-.04077.61029-.12982-.03491c.03955-.56061.0791-1.12122.124-1.75659a7.50659,7.50659,0,0,0,.95966-.223,9.18182,9.18182,0,0,0,.96087-.47059l-.01611-.29748a4.30731,4.30731,0,0,1-.76178.14612c-.54486.00842-1.13971.87536-1.55573-.58753-.11138.368-.20739.68549-.27246.90058a11.12692,11.12692,0,0,0-.30365-1.43323c-.1911-.48218-.44018-.50684-.71881-.14826.14167.64612.26862,1.22492.41815,1.90687-.46618.35528-.86517.67205-1.29583.12231-.31989-.40833-.63544-.19727-.842.60248.7041.04156,1.36535.09955,2.02661.10675.1712.00183.37475-.15027.37652.47735a2.14729,2.14729,0,0,1-.21466.97559,5.43209,5.43209,0,0,1-1.09216.88232,1.82043,1.82043,0,0,0-.99835,1.13739.45.45,0,0,1-.43469.31427c-.23169.00806-.32978-.27063-.08283-.97082l-.823.43036c.651,1.78363,1.22541.89911,1.73944.03082a4.29982,4.29982,0,0,1,.40656.453,1.45825,1.45825,0,0,1,.29236.57856c.13281.67767.31909.50378.59479.51629-.18183-.44446-.29-.709-.43348-1.05969l.53217-.18463c-.14722-.23877-.22919-.37177-.34-.55145.40186-.119.85138.39074.87964,1.11218.0257.655.14325.8327.33649.99188a2.62752,2.62752,0,0,1,.28284.50244l-1.28412-.40375-.00623.23755.47913.36683-.0185.25787c-.51568.24335-1.03137.48584-1.54211-.20911-.25971.80786-1.25177,1.42139-1.43976.8808l.15534-.12366-.01795-.23193a1.54286,1.54286,0,0,0-.39789.20654c-.2326.20545-.45453.622-.68847.66443a13.44,13.44,0,0,1-2.08051.14093c-.13617.00336-.27277-.13061-.32855-.15948-.02973-.601-.05023-1.01593-.06885-1.39325a1.04441,1.04441,0,0,1-.31079-.17084c-.27515-.278-.54883-.72876-.76971.24744-.01972.087-.13221.03045-.2016.03936-.17951.023-.35907.04517-.54938.069a3.49667,3.49667,0,0,1,.27563-1.97216c.36951-.472.76447-1.19428,1.0517.11389.2124-.43854.39319-.81165.5719-1.18048l-.14264-.27075c.47626-.52454.9118-1.00434,1.34741-1.48407l-.03631-.33722c-.31617-.06018-.63306-.10218-.94831-.18567-.30291-.08026-.55847-.05756-.71441.8399a.49964.49964,0,0,1-.42969.37824A4.33771,4.33771,0,0,1,118.496,17.44c-.02289-.22247-.01623-.46588-.02014-.60553L118.08,16.548c.03045-.2113.061-.42266.09417-.65246-.303-.27869-.33288-.9881-.31054-1.68756.02423-.75794.28949-.7284.49334-.82685.34119-.16485.68549-.28412,1.02778-.43426.24731-.10846.4616-.13672.6148.57959a3.07284,3.07284,0,0,0,.444.83441c-.10577-.70239-.17309-1.14935-.27423-1.82074,1.12647-.52777,2.19477-1.02832,3.26313-1.52881a11.85452,11.85452,0,0,0-5.47767,1.45441c-.22522-.49323-.39184-.85816-.58313-1.27716.10736-.52423.23548-1.14966.36359-1.775-.406.22071-.5426.96106-.51721,1.7486.04779,1.48315-.20612,2.22638-.72608,2.51685a2.16961,2.16961,0,0,0-.00921.226,1.86839,1.86839,0,0,1,.32239.00281c.41119.07177.49347.33648.31781,1.27484a1.933,1.933,0,0,0,.26007,1.70263c-.46057.24506-.58692.92914-.47052,2.13257l-.57862-.25146a4.43258,4.43258,0,0,0,.20887-.79846c.016-.4267-.01044-.86548-.02411-1.29828-.02185-.69171-.04749-1.38263-.07154-2.07386l-.08972.00562c-.0578,1.1535-.14636,2.25995-.62738,2.69421.174.96747-.04449,2.00837-.43133,2.12006a4.25909,4.25909,0,0,1-1.0763.1344c-.30169.00848-.71252-1.25311-.67889-2.03442a2.423,2.423,0,0,1,.03656-.35871c.15637-.77075.3164-1.53644.43017-2.08594-.11676-.91449-.21154-1.65655-.32122-2.5155-.2995,2.27057-.59113,4.48169-.91748,6.95563-.14649-.54938-.23322-.87445-.32-1.19959l-.08905.1731c.15283.70215.30566,1.40436.483,2.21869-.49078.16412-.9281.47156-1.35767.40985a4.49819,4.49819,0,0,1-1.34265-.74243c-.01037-.39643-.024-.91455-.03418-1.30121-.208.42761-.38684.85455-.58807,1.18854a2.751,2.751,0,0,1-.47492.51446c.08637.33667.17273.67334.25538.99573-.43866.0578-1.02155-.84766-1.15192-1.89423.26544-.04968.522-.09777.84839-.15887-.117-.38764-.17682-.58618-.255-.84546.38971.01764.51245-.58362.50324-1.51447.19348.14374.35748.26551.52087.38685a7.45839,7.45839,0,0,0-.1593-3.614v2.799l-.14215.032-.10419-1.43763a3.84441,3.84441,0,0,0-.39789,2.15113,1.72542,1.72542,0,0,1-.13995.45929c-.213-.65442-.40137.17523-.61511.11468a22.06278,22.06278,0,0,1,.44867-4.78827c-.27021-.23956-.33594.05438-.38758.67725-.03985.481.04,1.41113-.26727,1.25067a10.98068,10.98068,0,0,1-.31384,2.32519c-.21008.3982-.61572.088-.95868.088a3.44573,3.44573,0,0,1-.03223.58172c-.18316.84619-.28253.37921-.47607-.09753-.2757-.67908-.65558-1.05853-.95355-1.68775-.2287-.483-.44635-.65264-.71405-.47534-.10944,1.10828-.47089,1.70484-.95893,1.67658-.12469-.00721-.25073.141-.3761.21771l.0047.23242-.21753-.443.00592.24176-1.619.72876.01519.2229.35267.11371-.01368.297a4.654,4.654,0,0,1-.99469-.25061c-.35022-.16577-.66674-.56012-.85522-1.63263-.2901,2.02393-.81983,2.68543-1.55737,2.484-.17078-.04663-.35529.25336-.57532.42682-.017-.133-.05121-.40094-.07666-.59973-.53375.31159-1.06445.6214-1.6225.94714.23334-1.38092.92267-.53784,1.17554-1.84466-.51233-.58649-.92786-.025-1.42468.647l-.03046-1.84314c.16394.06208.32764.12928.49188.18384.07733.02576.1662.089.22986.01569a1.181,1.181,0,0,0,.03741-.48542c-.03631-.14227-.12835-.18505-.19555-.27539-.15283-.20562-.44086-.45038-.43451-.61554.03064-.79034-.161-.65857-.33081-.7724a.8017.8017,0,0,1-.2887-.52789,1.78187,1.78187,0,0,1,.17621-.81128c.11749-.17761.28082-.14722.435-.21094-.00464-.75268-.061-.84716-.32477-.46661-.21747.31366-.43628.76257-.66773.82751a.59928.59928,0,0,1-.66369-.49658c-.21784-1.31683-.632-2.19641-.91864-3.335a14.204,14.204,0,0,1-.15766-1.7691l.49054.6958.04969-.17932c-.10077-.39392-.20154-.78791-.32978-1.28943.21076-.06836.37714-.12232.54352-.17633a.62483.62483,0,0,0-.40863-.31854c-.42114-.05365-.67486-.55335-.78284-1.668C92.54016,4.0199,92.31055,1.993,92.09851,0l-.19238.4798c.189,1.98626.3656,3.84155.5462,5.73907l-.21777.28357.5199.61328c-.16712.20459-.307.37574-.44678.54682.3443.02179.43347.48053.442,1.29852a12.38837,12.38837,0,0,0,.15711,1.45813c-.05176.56177-.09.97662-.14758,1.60126.18658-.33655.27661-.49884.40582-.73194.07745.87653.03686,1.39783-.30328,1.62036q.25955.29472.519.58948l-.01483.2685-.74006-.09357a14.88218,14.88218,0,0,0,.62751,1.79254,3.48259,3.48259,0,0,0,.76184.84436l-.01972.30463-1.1687.23217a8.68841,8.68841,0,0,1,.7602.91779,4.10827,4.10827,0,0,1,.23791.79816c-.14764.15356-.29224.39386-.44391.42944-.09717.02277-.20465-.25647-.33905-.44446-.08795.34223-.18811.73218-.28784,1.12055-.19989-.36859-.42889-.79084-.65784-1.21308l-.04736.18744c.092.26093.184.52185.33118.93915-.30628-.11487-.5553.02319-.64014-.82092-.01135-.11292-.23254-.22455-.24329-.17328-.24652,1.173-.65.41431-.98.53711l.45294-.40436c-.45623-.13562-.8374-.2489-1.21862-.36224l.01556-.21881c.25354-.42249.50714-.84491.74768-1.24555-.05328-.29871-.10858-.60907-.20245-1.13574-.22644.10443-.51355.23682-.81067.3739l.10321-.86584c-1.44934-.63587-2.87073-1.2594-4.29212-1.883l.00751-.18817,2.23358.3847.02167-.31671c-.44293-.3385-.88-.89221-1.32989-.97619-1.50464-.281-3.01392-.39063-4.52131-.574-.28827-.0351-.57586-.10724-.86377-.16229l-.03015.30871a15.59145,15.59145,0,0,0,1.9917,1.83411,12.16506,12.16506,0,0,0,2.37348.97131c.56219.21283,1.12579.40039,1.7326.61469l-.10718-.7c.31794.11792.61249.22686.907.33789.00958.0036.01794.0285.05023.0827l-.25989.48792a3.46556,3.46556,0,0,1,.60913.00549c.52582.10315,1.01471,1.48248.98609,2.75439-.0221.98059-.22382,1.30695-.574.92859-.70367-.76025-1.83453-.19629-2.3764,1.26343.13574.12994.25.312.36969.34106.488.11853.97741.20026,1.46679.27625.48957.07611.487.06641.51331,1.33551.00555.2677.03986.53137.07037.9165-.15136,0-.38849.11658-.41162-.01849-.17865-1.04358-.4491-.31409-.66955-.27911-.24762.0393-.49225.30212-.73816.30139-.81433-.00244-1.62879-.06684-2.44281-.13813a2.013,2.013,0,0,1-.55793-.23736l.01819-.28088c.12549.0404.2533.136.37549.09967.069-.02051.12866-.25776.19257-.39734-.06116-.10413-.12195-.293-.18347-.29474a.84159.84159,0,0,0-.38862.14807,1.18918,1.18918,0,0,1-1.67047-.26544,2.18439,2.18439,0,0,0,.71021-.14911c.19171-.10974.365-.451.55676-.54688.42035-.21.4231-.17291.483-.63226-.40753-.12079-.846.40057-1.221-.53241.20618-.0481.41242-.09613.69532-.16205-.34058-.2926-.60309-.51806-.8656-.74359l.01361-.25366c.42236-.0589.84527-.09876,1.2669-.18207.414-.08185.84595.04858,1.30994-.6543-.22913-.21917-.377-.44152-.5332-.49554a6.63175,6.63175,0,0,0-1.78192-.4931c-.55854-.02472-1.03406-.37818-1.438-1.39423a4.99809,4.99809,0,0,0-.31708-.58752c-.07062.52533-.1275.94879-.19385,1.44232-.36718-.8902-.6463-.78052-.78467.32263-.12011.95734-.28015,1.36468-.67016,1.09949-.08508-.0578-.20429.22973-.3078.35821a4.23143,4.23143,0,0,0,.2442.55017,3.41115,3.41115,0,0,0,.416.44977c-.48462.44568-1.75989-.17407-1.95935-.80975.54443-.51062,1.0885-1.02069,1.64318-1.54065a4.849,4.849,0,0,1-.58673-.60425A1.39109,1.39109,0,0,1,78.593,15.734c-.0116-1.19623.25323-1.90546.699-1.85755a16.76724,16.76724,0,0,1,2.1518.34394,1.28718,1.28718,0,0,1,.77856.59271c.32941.51611.5683.22229.93109-.30762-.22778-.16937-.3576-.32165-.49188-.35681-.97534-.25561-1.95166-.48791-2.92767-.72693-.25074-.0614-.50159-.12073-.75238-.181l-.00977-.3009a1.789,1.789,0,0,0,.34631-.28766,1.3659,1.3659,0,0,0,.281-.50745,2.92382,2.92382,0,0,0-.23059-.94537,5.33539,5.33539,0,0,0-.63043-.79242c-.43347.34491-.85474.68006-1.276,1.01526l-.00336.21918q.56451.247,1.12891.49395l-.01136.31006-2.11084.29322c.22266.56585.40107,1.02673.58295,1.47821.0816.20269.17.38659.25543.579a2.98673,2.98673,0,0,1-.28088.64752,1.7773,1.7773,0,0,1-.55353.38043,5.097,5.097,0,0,1-.55341.22089l-.01959.29761c.21112.18.42224.36.66291.56524-.0943.29517-.18311.57288-.2793.87378a6.53405,6.53405,0,0,1,.14581,2.6319c-.03754.7652-.17517.94067-.49652.811a15.67291,15.67291,0,0,0-3.17035-.96106c-.33606-.0578-.44757-.3786-.56305-1.033.65717-.37909,1.28559-.74157,1.914-1.10406a9.03314,9.03314,0,0,0-1.6557.09643c-.094.00751-.19128-.26892-.28705-.41418.08313-.21893.1557-.58264.25122-.63013a4.65051,4.65051,0,0,1,.94526-.27612,3.04227,3.04227,0,0,0-1.12787-.40381c-.07984-.0094-.22589.33624-.23883.55927-.04755.81689-.12653,1.47186-.528,1.35028v.96508h-.62835l.465-.71386c-.80542-1.262-1.6275-.43634-2.40771-.64l-.00086-.2846q1.26582-.35771,2.53156-.71546l-.00836-.37628h-2.1521l-.02906-.37659.51124-1.12628a3.74055,3.74055,0,0,0-1.71863.16034c-.35077.10529-.69574.47382-1.044.4801-1.12579.02045-2.25183-.0899-3.37787-.10974-.32843-.0058-.52881-.43109-.73791-1.18457l.59277-.53357c-.0639-.22809-.12384-.33563-.16492-.29877-.38421.34522-.4187-.277-.433-1.01751-.00775-.39893-.046-.79376-.0705-1.19043-.07489.84765-.07922,1.66083-.074,2.47351.01135,1.73816-.149,2.08789-.79254,1.69049a.92523.92523,0,0,1-.1742-.17273,4.833,4.833,0,0,0-.085-.7851c-.0365-.10186-.20495-.08337-.22009-.00054-.11218.61566-.283.30908-.43359.22332a5.32214,5.32214,0,0,1-.4972-.36731c.00892.23841.01484.3971.02564.68463-.31769-.04736-.61237-.09124-.907-.13519l-.03333-.3645c.2323-.48969.45233-1.03021.70245-1.44659.1175-.19562.30707-.28571.43927-.18982.29645.215.57294.61273.8667.86224.1388.11792.36371.24042.43567.05585a7.08651,7.08651,0,0,0,.34223-1.54914c.01538-.12011-.22077-.46075-.35022-.71807.06726-.20057.15905-.474.2594-.773-.11072-.36511-.20966-.6914-.31995-1.05523l.39838-.6117-.50751-.212c-.13666.822.13318,1.84143-.26734,2.33893l.19233-.58106-.09827.02155a8.40334,8.40334,0,0,1-.14545-1.4419A6.47547,6.47547,0,0,1,61.91608,8.08c-.54334.27093-.93177-.28241-1.29358-1.51313a8.85151,8.85151,0,0,1,1.08532-.85211,5.66575,5.66575,0,0,1,1.10535-.36505,2.85359,2.85359,0,0,0-2.90771.83667c.45282-.09979.58654.518.58044,1.54413a2.53249,2.53249,0,0,0,.17584.76746,2.155,2.155,0,0,1,.05274,1.3847c-.11988-.257-.22852-.49017-.31989-.6861-.02911.40021-.05627.77393-.08343,1.14771-.20819-1.08893-.60224-1.88031-.89423-1.70844-.49634.29224-1.10791-.27447-1.54864,1.03424.47265.21882.89392.40131,1.31317.61146.413.20709.824.44226,1.236.665l-.033.45246c-.22418-.08521-.45068-.27185-.67206-.2367a15.66325,15.66325,0,0,0-1.996.46814c-.33191.09857-.637.1283-.91284-.49493-.21888-.49469-.44416-.47894-.598.24054-.11853.55414-.25836.49835-.40289.14075-.27807-.68824-.54962-1.39563-.81683-2.1131-.2453-.65882-.48126-1.34137-.72138-2.01349l-.11224.1615c0,.52429.029,1.06341-.00861,1.56848-.03369.45245-.14068.86737-.23242,1.3977.08539.063.2544.30207.42047.28894.49854-.03942.78455.79969,1.07453,1.63959a.91514.91514,0,0,1-.07544.8913c-.3675.45361-.85791.16345-1.15375-.61066a.96454.96454,0,0,0-.37927-.4732,2.082,2.082,0,0,0-.556-.19587c.09692-.30609.16931-.53491.2406-.75988l-.26734-.53479-.29071,1.13318.02649.33294-.74426-.61737-.39892.7876c.65527.29309,1.27545-.027,1.79479.91925-.92907-.051-1.9176.58392-2.59667-1.55066-.16095.63336-.30378,1.19556-.4466,1.75775l-.15881.046c.21472-1.267-.0492-1.27148-.33258-1.29156a2.55726,2.55726,0,0,1-.82209-.1817c-.16113-.06781-.313-.28675-.46911-.43775l.02814-.21533c.15319.03064.30645.06122.51916.1037a2.5498,2.5498,0,0,0-.12494-.53137c-.47272-.21607-.94739-.40345-1.403-.59034A1.45038,1.45038,0,0,0,47.84619,8.688a1.07612,1.07612,0,0,0-.46374-.47138A2.40157,2.40157,0,0,0,46.633,8.196l.04614-.26428a2.577,2.577,0,0,1-.2619-.73926A11.87017,11.87017,0,0,1,46.48242,5.819c-.07287.07465-.13653.13428-.19842.20416-.43665.49268-.56928.25928-.54364-.95849.00262-.12531.0075-.25141.0047-.37616-.0141-.62812-.13776-.74347-.339-.49085A2.33129,2.33129,0,0,0,45.25793,6.497c.22486.58948.47077,1.124.71961,1.71252l-.53705.47449.0072.279c.63269-.2727.48212,1.448.86432,1.98737l-.457.84607-.03546-.45478-.60449-.27972-.151.629c.18322-1.59552-.53217-.58173-.60523-1.47919.24488-.13934.47187-.26837.69879-.39746l-.00879-.27313c-.56188-.70636-1.15112-1.13263-1.78289-.80835-.14331.07361-.25952.50464-.38916.76776-.12806.25989-.25733.51556-.43073.86243a8.70712,8.70712,0,0,0-.11127-1.56421,3.36084,3.36084,0,0,0-.76049-1.17475c-.19825-.17535-.4441-.05041-.662.04554a3.27987,3.27987,0,0,0-.1153.71252c.22156.22113.44306.4422.72156.72022-.09259-.45008-.14575-.70874-.22388-1.08869.40619.22284.6474,1.04456.69117,2.05341.03015.69446-.07068,1.10382-.335.90454a13.67663,13.67663,0,0,1-1.15271-1.11871c-.89734-.03394-1.87513,1.1701-2.93354.403a1.30368,1.30368,0,0,1,.10517-.32709,2.41842,2.41842,0,0,0,.581-.336,2.87835,2.87835,0,0,0,.27814-.69622c-.10455-.084-.24146-.32233-.30835-.2262-.36078.51861-.70294,1.12561-1.05451,1.68933-.08947.14349-.20208.37579-.28234.32617a.89581.89581,0,0,1-.29224-.5769,2.90789,2.90789,0,0,1,.13672-.85285c.056-.22711.19427-.37945.20807-.60235.05206-.8418.26532-.74365.4851-.6687.10523.03589.21009.079.34388.1297l-.08081-.575c.5794-.13311,1.06433.36219,1.50488,1.29078.16382-.9433.02154-1.34211-.2876-1.41413-.2857-.06653-.57428-.04138-.861-.08362-.45349-.06677-.90643-.15618-1.40735-.24438a12.53818,12.53818,0,0,1-.298,2.46313c-.12323.71241-.28553,1.09443-.54627,1.15064-.61835.13324-1.239.19641-1.85913.26837-.08386.00971-.16968-.09277-.35217-.20135l.5235-.47614-.23487-.66632.217-.67017a9.8456,9.8456,0,0,0-.90558.66474c-.50824.46057-.7193.10663-.72222-1.32672-.42823.11908-.82081.06286-.76294-1.525H31.5235c-.08295-1.20782-.41211-.37237-.60694-.58032l.07111-.47546c-.44861-.59705-.47815-.71216-.66565-2.06574-.09747-.70349-.19537-1.42071-.34082-2.05676-.05194-.22687-.28918-.42255-.36407-.30164a2.89428,2.89428,0,0,0,.02893,1.69745c.24164.61457.46661,1.27417.69867,1.91461l-.06946.39576a6.58564,6.58564,0,0,1-1.0813-.2201c-.21448-.078-.41785-.34662-.63013-.48968a4.28816,4.28816,0,0,1-1.10449-.73194c-.36224-.41845-.68732-1.03289-1.11127-.89251a.84283.84283,0,0,1-.05328-.18476c.06323-.18524.12872-.37689.22473-.65789-.17493-.16577-.32214-.30536-.44324-.42-.09838.82337-.133,1.60718-.27685,2.21253a21.49416,21.49416,0,0,0-.8479,3.772.92783.92783,0,0,1-.08972.28467c-.291.69842-.58088,1.40021-.8769,2.08374-.07891.18219-.1748.41711-.26812.43433a5.77145,5.77145,0,0,1-.99945.02069,7.052,7.052,0,0,0,.222,1.23046c.34473.601.38275-.84753.663-.78094.186,1.35052.03448,2.39374-.4552,2.77527a2.6438,2.6438,0,0,1-1.0586.42706c-.25964.06714-.33685-.2439-.247-.93146.05866-.44873.0445-.96283.063-1.44763l-.11047-.06506.17169-.66809a3.54407,3.54407,0,0,0-.45935.75769,2.468,2.468,0,0,1-.60034.751c-.106.06836-.2923-.15979-.35834-.40753a4.50164,4.50164,0,0,1,.05426-.94311c.21375.73431.42914.92694.70337.65381a1.26418,1.26418,0,0,0,.108-.32013l-.33368-.612.53449-.45807c-.1001-.79071-.20319-1.57947-.29932-2.374-.06616-.54682-.04681-1.32007-.34973-1.33771-.3241-.01886-.26263.79394-.34125,1.31714a6.87946,6.87946,0,0,1-.2583.93072,3.406,3.406,0,0,1-.29925-.795A16.81294,16.81294,0,0,0,18.9483,4.22827a1.519,1.519,0,0,0-.20343-.34015c.338,1.3067.705,2.71076,1.06555,4.126a2.77437,2.77437,0,0,1-.0606,2.03424,2.40094,2.40094,0,0,0-.13178.7514c-.06061,1.07587-.30646,1.36213-.68915,1.30005-.17187-.02783-.34954.19184-.6112.35224l-.22174-.28113c-.09436,1.41272-.29108,1.58325-1,.97064a7.75168,7.75168,0,0,0-.15833-1.37952,10.52538,10.52538,0,0,0-.76343-1.4306l-.1958.54181c-.19207-.5686-.367-1.08655-.542-1.60449l-.10376.1524c.19824,1.09107.39649,2.18207.591,3.25275-.18049.31769-.37092.653-.56678.9978-.14178-.1947-.3089-.42419-.476-.65368l-.02509.1311.22156.67059-.05182.26453c-.27026-.27319-.54046-.54645-.92169-.93189.2431-.64862.41583-1.10949.60974-1.62677-.05981-.19708-.1745-.57507-.3587-1.182-.17017,1.51477-.31195,2.77722-.46448,4.13513-.11419.02362-.2876.05939-.5083.10492.04828.41022.08411.7149.1283,1.0907l.369-.48456a2.13973,2.13973,0,0,1-.32886,1.61236c-.2948.38276-.59546.7168-.89618-.01379-.12445-.30237-.26746-.55237-.402-.82617l-.07989.24408c.086.33148.16247.68414.26031.98962.15381.4801.34.89606.47467,1.40741a2.05378,2.05378,0,0,1-.03412.82239c-.13183.2384-.30792.30872-.56122.53131.11957-.41559.16639-.57819.23353-.81134-.37421-.09967-.71515-.19055-1.05616-.28137l-.02459.25586c.1474.12335.29351.2586.44244.36749a2.2,2.2,0,0,1,.37775,1.6983,3.13679,3.13679,0,0,1-.818,1.01337c-.23.1756-.4881.09839-.73376.13336l.00464.18982.296.38141-.14734.706c-.19989-.10247-.37116-.19024-.58618-.30041.03509,1.24023-.32215.99212-.58234,1.11828l-.03278.24732L10.23,25.75024c.40119-1.22418.53473-1.33258.72241-.86932-.19616.51447-.39788,1.00806-.58337,1.54059-.17047.48938-.46344.33765-.56793-.33521-.02741-.17639-.03522-.37365-.05524-.5968a8.123,8.123,0,0,1-.48273,1.36c-.20611.31988-.46112.33215-.61908-.62476l.51307-.11407c-.30634-.41663-.08393-.85834.02343-1.30585l-.08532-.23273-.94953,1.59259.4383.5401c-.21088.50452-.38306.91663-.58954,1.41059.30481.3313.57177.59173.82855.90893.2652.32752.51514.71765.32385,1.9289L8.70215,29.668a4.599,4.599,0,0,1-.46362-.28473,2.0018,2.0018,0,0,1-.26142-.31323v.78931a2.20039,2.20039,0,0,0-.48224,1.73291l.30725.074c-.13861,1.16711-.35211,1.67792-.70623,1.44489l.34173-.56812c-.0733-.66736-.143-1.30231-.212-1.93073-.80493.40192-1.45429-1.09155-2.26233-1.11273.18023-.9906.80566-.55133.65222-1.85119l.72723-.44-.01648-.149c-.32257-.13111-.64514-.26227-.99127-.403a2.23113,2.23113,0,0,0-.3963-1.99969c.06134,2.46106-.46979,4.58685-.27154,7.10467l.6853-1.12811c.146.82489.27215,1.53784.40631,2.29608-.50775.4-.37775-.532-.4032-1.19226a2.07978,2.07978,0,0,1-.39453.26972,2.1369,2.1369,0,0,1-.85077.20324c-.10644-.00927-.28-.38531-.29193-.63672a2.441,2.441,0,0,1,.21411-.85546c.05237-.13746.20245-.09125.22394-.22272a2.86718,2.86718,0,0,0,.03552-.89972c-.30408-.91718-.25146-1.51556.19959-1.92822-.09314-.19513-.18756-.39276-.352-.73713l.34033-.066c-.13782-1.06872-.3758-1.559-.71613-1.43884.04761.23438.07978.47138.13654.65674a1.69538,1.69538,0,0,1-.0398,1.29926c-.2099.38452-.50885.41748-.59985-.17383-.14539-.9455-.39087-1.14411-.71527-1.21625-.07727-.01715-.15851-.14783-.22327-.27686-.31671-.6314-.33276-.586-.44378.36652a.94448.94448,0,0,1-.34736.61652c-.09222.06213-.21337-.17054-.42089-.3642-.082,1.02429-.18109,1.942-.22382,2.87726-.04968,1.08636-.046,2.189-.075,3.28277a2.42182,2.42182,0,0,1-.08808.59876,4.0571,4.0571,0,0,0-.01556,1.96857c.43219-.42218.811-.798,1.19171-1.16077.13458-.12824.31067-.12329.403-.35584.20117-.507.36328.19629.54058.0138a3.73852,3.73852,0,0,1,.04248.71545,1.72843,1.72843,0,0,1-.22332.50537c.1687.4162.33593.82868.4953,1.22162-.06226.71564-.12683,1.45716-.19129,2.19861l.179.24982c.24194-1.7168.6156-3.0824,1.34351-3.63544l.66827,1.00055a1.78043,1.78043,0,0,0-.31415.04749c-.321.1286-.64215.2561-.96161.40826a.397.397,0,0,0-.14764.256,1.66739,1.66739,0,0,0,.095.55322c.07019.14087.17346.16846.27856.25885-.04791.30146-.09045.56922-.14544.915.27447-.09894.51556-.18579.79223-.28546l-.03741.68518.76025.2226c-.03027.12835-.05884.24786-.08813.37115-.273.04382-.54676.11194-.81861.16016-.69366.123-1.3847.30273-2.07885.41266-.53607.08484-1.07788.05249-1.61194.16424A3.58962,3.58962,0,0,0,0,40.46094l.00592.35107c.49207.18445.98358.37464,1.47656.55.16645.05914.39575-.0387.49433.14087.34686.63165.64941,1.35272.98828,2.08191-.18433.17261-.31745.29718-.52545.49188a3.7247,3.7247,0,0,0,.681.755c.13214.07366.41784-.08973.45141-.271.16553-.89349.53986-.92127.91681-.98847-.01062.27564-.02777.53266-.05615.76038a.29406.29406,0,0,0-.36011-.01678A3.70276,3.70276,0,0,0,3.335,45.95575c-.0946-.08765-.19122-.16077-.28223-.138-.59454.14838-1.1867.36011-1.77954.55408-.1571.05145-.31335.121-.47.18225l.00751.25012,2.3335.40155a3.9114,3.9114,0,0,0,.00219.42163,4.2379,4.2379,0,0,0,.09131.50354l.05737-.21063.84.37781c.01422-.31958.0213-.62214.033-.91614q1.14936.19775,2.29865.39557l.02233.20758c-.035.00317-.06567.00647-.10595.00976-.0199.00165-.03864.05194-.0578.07978.00049.08264.00494.16394.01257.24273-.05823.08344-.11658.15192-.17572.15692a1.91984,1.91984,0,0,1-.931-.09558c-.87482-.36877-1.63812.75769-2.4538,1.17084a.77829.77829,0,0,0-.04919.14612,5.66291,5.66291,0,0,0,1.9187,1.51794c-.06982.10382-.14026.20551-.21356.29785a2.65938,2.65938,0,0,0-.18536.557c.26129.166.48053.28443.69079.44568a2.14591,2.14591,0,0,1,.43793.44513c.39874.5509.788,1.12707,1.1958,1.71484l-.30994.647h.72156l-.22992.4992A2.63066,2.63066,0,0,1,7.887,57.52631L7.4837,57.689l.05194,1.207-.12054-.13819a3.0525,3.0525,0,0,1-.49066.19666.31083.31083,0,0,1-.28076-.09125,3.25559,3.25559,0,0,1-.55927-.65961c-.28131-.47674-.55664-.44024-.88177-.19214-1.30255.9939-2.04651,2.77753-2.20917,5.46985a2.68961,2.68961,0,0,0,.56872,2.36554c.028-.72509.0495-1.447.08533-2.1662a2.846,2.846,0,0,1,.56348-1.795c.34741-.36908.69519-.83423,1.11987-.27313.05628.07434.19959-.09308.30255-.14856l-.016-.13648-.36682-.17651a2.5361,2.5361,0,0,1,1.9411-1.45306c-.12231.28643-.19879.46569-.24841.58191l.79626.83117a9.71144,9.71144,0,0,0-.275-.96759c-.1-.34942-.02143-.62134.17-.68524a1.8939,1.8939,0,0,1,1.36871.28925c-.45153,1.42279-.45153,1.42279-.05615,1.526-.46942,1.1195.17273,2.25921-.03589,3.238.61035,1.03894,1.12824.62677,1.63593-.1983a.78943.78943,0,0,1,.40961-.28333c.38342-.17486.71557-.00579,1.02612.64435-.18884.09156-.33826.23255-.48346.218a2.4,2.4,0,0,1-.61792-.2417l-.02405.22687.32965.30847-.001.20843q-.62356.21818-1.247.43628l-.001.27094c.4284.09106.85681.18219,1.33819.28454-.15747.17566-.26367.28919-.36731.41053-.35449.415-.7243.79083-1.057,1.26257a1.43224,1.43224,0,0,0-.04041,1.40723c.26648.56439.51569.60778.789.24572a6.77716,6.77716,0,0,1,.76868-.80438c.19989-.1925.35126-.07715.44727.31836.09112.37512.19036.7431.30957,1.20557.13842-.24866.23846-.42841.40722-.73151l-.50573-.58771c.17926-.3717.29748-.61682.40161-.83282.36444.53369.68762,1.03992,1.03222,1.48517.0738.09527.22541-.03064.34119-.05463a3.99343,3.99343,0,0,0-.04572-.58234c-.043-.18579-.15258-.3164-.1925-.503a1.18377,1.18377,0,0,1,.00287-.50506,10.70507,10.70507,0,0,1,.84454-.67279c-.06732.69378-.113,1.16473-.17206,1.77343a1.50378,1.50378,0,0,0,.23267-.1925c.25732-.36652.51233-.73889.76752-1.1109.02862-.04175.07776-.09534.07654-.13922-.02289-.80432.30822-.79828.5946-.88416a2.66114,2.66114,0,0,1,.25049-2.67676l.01782.5575a2.69761,2.69761,0,0,1,.94629.23248c.30261.19312.569.67591.85944-.01227a.14372.14372,0,0,1,.13751-.0805c.37085.01508.5086-.33514.45416-1.01849a2.27891,2.27891,0,0,1,.028-.35755l.11921-.01477.09558,1.24725.10711.18848c.16193-.44427.32386-.88861.48951-1.343l.245.37989.47376-.42108.09423.223c-.15258.40179-.29779.81488-.45928,1.203-.34327.82489-.69916,1.63062-1.03876,2.46088a1.99287,1.99287,0,0,0-.05567.51239c-.00091.01416.08826.07391.09211.062.03875-.12268.06878-.25556.10089-.386a2.46163,2.46163,0,0,1,.77307-1.40484c-.05444.41345-.09729.67236-.12073.93762-.01941.22-.01587.44738-.02252.67151.55127-1.60614.55127-1.60614.9082-1.8042A6.70659,6.70659,0,0,0,20.259,69.2326c.12287-.19635.254-.406.385-.6156l.12317.13746c-.07678.47686-.15356.95373-.25372,1.57544a1.92366,1.92366,0,0,0,.28192-.40076c.17944-.4978.42938-.57648.71338-.504.09711.02478.19446.04578.29156.07092.20569.05329.3393-.037.30927-.51574-.01343-.21375-.00226-.43317-.00226-.73218l-.41223.69714c.0769-.70935.13275-1.225.19476-1.797-.62842,1.031-.62842,1.031-.884.61084.11652-.13244.2384-.27087.41248-.46868-.533-.25873-.71216-.64209-.76673-1.50062-.4563-.18072-.55658-.33782-.53991-.84539.27545.17877,1.364-1.07611,1.4671-1.75312.18908.18274.37689.34394.55383.54078.18573.20648.36115.44714.54407.67669l.72369-1.5166c.3053,1.194.78455,1.65686,1.36664,1.858a.99941.99941,0,0,1,.63983.43982,4.50473,4.50473,0,0,1,.20667,1.12244c.16894-.07153.41064-.27539.64392-.24463.24139.0318.57324-.19421.6875.48737a8.91208,8.91208,0,0,1,.98706-.611,4.80014,4.80014,0,0,0,1.93078-1.80084,3.71586,3.71586,0,0,1,.62415-.73053c.18817-.164.41089-.41711.57867.127a.1427.1427,0,0,0,.19245.06238c.3797-.23126.75519-.48785,1.13336-.72882a2.54971,2.54971,0,0,1,.31781-.14361c-.4516,1.82232-1.45,2.34393-2.06177,3.68621.153-.0252.26367-.17053.38428-.27307a1.4259,1.4259,0,0,1,.3081-.16516,2.84651,2.84651,0,0,1-.15948.59619,3.85666,3.85666,0,0,1-.44128.55133l.07757.21717c.16351-.21637.33594-.41205.48853-.65375.25378-.402.49048-.84345.743-1.2486.12616-.20245.27917-.34332.40637-.54388.31885-.50281.62036-1.04791.94879-1.5257a1.66543,1.66543,0,0,1,.47736-.37353l.09222.19458a6.50636,6.50636,0,0,1-.37689,1.20441,2.863,2.863,0,0,1-.7027.67169c.38159.32483.70233.11847,1.02344-.65363.23614-.56793.44965-1.17047.68481-1.74005.07868-.19061.27851-.33026.27692-.48773-.00818-.80231.29291-.66516.50916-.61273.34967.08477.68969.30749,1.03826.4226.10108.03339.21729-.10168.3841-.19.40094.30072.88129.66089,1.36157,1.02106a1.7631,1.7631,0,0,1-.55853.36658.61677.61677,0,0,0-.28668.3847,1.22824,1.22824,0,0,0,.16394.68811,1.49478,1.49478,0,0,0,.73339.22107c.33765.0296.67737-.02545,1.0149.006.092.00861.22772.15912.26056.31049.15442.71118.45733.91638.8139.98437q.08313.32639.1665.65235l.10987.02563a4.05179,4.05179,0,0,0,.1831-.80383c.00428-.09924-.21533-.22327-.32672-.35486-.11346-.134-.21942-.29132-.32867-.43842.10016-.17547.18713-.449.3031-.5061a2.48794,2.48794,0,0,1,.76184-.1803c.35412-.0531.70911-.08447,1.06372-.12518l.0094-.19781-.67468-.41962.00665-.07611h.62524a7.49581,7.49581,0,0,1-.33282-1.00208,1.45475,1.45475,0,0,1,.08368-.68225c.04059-.0968.20288-.00683.31036-.00018.08942.00555.20386.08368.26386.00629.27765-.35859.5401-.76014.8623-1.22461-.60541-.67957-.72015.63092-1.08313.75628.046-1.0625.33179-1.4237,1.22589-1.56885l.03223-.54657c.74628-.11016.80841-.16,1.42871-1.037.08667-.12256.24194-.32849.28-.27454.30926.43781.40881-.17145.58935-.38037.13312-.15393.27155-.33844.41816-.3833.08007-.02454.23431.18372.2583.34119a1.04908,1.04908,0,0,1-.15308.52c-.05463.09534-.16229.07374-.24438.11731-.40992.21772-.62061,1.07013-.43567,2.0066a3.41116,3.41116,0,0,0,.16162-.64923c.023-.77491.2782-.98285.62-.99518.171-.00617.34278.04516.51349.03351.29712-.02033.54468.04284.50794.84442a1.71293,1.71293,0,0,0,.1-.70179,5.6727,5.6727,0,0,0-.4306-.87078,2.03868,2.03868,0,0,0,.266-.56537c.13227-.69751.41748-.66107.7146-.67285.30615-.01215.61182-.07.91767-.10791l-.00855-.31885c-.73938.064-1.47906.12109-2.218.203-.07141.00794-.13385.18689-.20813.25623a2.61555,2.61555,0,0,1-.29425.21441,2.19772,2.19772,0,0,1,.0625-.62823c.21-.25366.44611-.55872.68055-.58655,1.52636-.18134,3.05517-.28473,4.58252-.43842.30871-.03106.61334-.21191.922-.24346a3.93918,3.93918,0,0,1,.8606.08142c.12958.01568.25867.04351.41467.07043a2.25738,2.25738,0,0,1-.03241.3493A7.43252,7.43252,0,0,1,53.03,55.306c.08526.2702.14447.4577.19916.63086l-.9618.96728c.52625.12183.97693.2262,1.42475.32984l-.02075-.49756.16986-.26624a5.599,5.599,0,0,1,.16119.69391c.07336.66193.27435,1.00421.66406.97779l-.18316.67492c.45965.34979.489.47089.23394.99378q-.14977-.27274-.29889-.54419l-.09027.12811c.10511.27838.211.55573.31519.83533.15131.40619.15.7008-.158.74774-.31708.04828-.63525.074-.9516.13556a3.87461,3.87461,0,0,0-.5332.185l.01691.27636c.802,0,1.60406-.00293,2.40606.00275a2.6629,2.6629,0,0,1,.38941.05652c-.11762.36261-.18494.6084-.27167.82568a1.23192,1.23192,0,0,1-.26093.48987,1.784,1.784,0,0,1-.57574.16217l-.00354.09991,1.23315.19867c.10364.30109.197.59388.30194.87055a4.0026,4.0026,0,0,1,.28663.70257.90862.90862,0,0,0,.53912.7981c.6543.31232,1.29669.71594,1.95776,1.09076-.0628.21649-.09063.31232-.16864.58136a18.40089,18.40089,0,0,1,2.11682.02429,1.3782,1.3782,0,0,1,.947.54559c.42371.56946.68311.61383,1.12494-.05206.17517-.2641.417-.399.5921.105a.4664.4664,0,0,0,.0929.183c.254.20269,1.06677-.29456,1.29645-.84559l-.63892.14576-.03625-.23627a8.99365,8.99365,0,0,1,.781-.59924c.06873-.04267.24768.1184.247.18048-.01135.99328.405.59393.54907.47216a.70152.70152,0,0,1,.778-.09655c.1925.0664.38788.10266.582.15069,1.84515.45685,3.68939.92859,5.536,1.36353.94055.22162,1.88544.377,2.82837.56225l.03162-.246c-.16657-.14111-.329-.37958-.50049-.40674-.82685-.131-1.657-.1864-2.48426-.3092a5.51947,5.51947,0,0,1-.925-.30792L71.78,67.92l.555-.24933a.31452.31452,0,0,0-.253-.10083c-2.3576.07843-4.64471-.91241-6.94531-1.691a.79958.79958,0,0,1-.47687-.42487c-.17926-.40625-.41272-.40143-.55078-.17712-.32648.53027-.66406.31427-1.00653.2445-.3169-.06463-.63251-.15106-.98316-.23626.17707.34558.31147.60766.478.93255l.36768-.05755.00409.2423a2.5758,2.5758,0,0,1-2.494-.14233l.403-.16461a2.26267,2.26267,0,0,1-.45959-.39233c-.2486-.346-.47773-.7436-.71381-1.1222-.1145-.18365-.22668-.37256-.3399-.55914a3.62477,3.62477,0,0,1,.33453-.714.80651.80651,0,0,1,.48437-.27405c.56025-.10724,1.12256-.17328,1.68378-.26349.22-.0354.439-.093.65839-.14038l.03625.28546c-.80243.46784-1.60486.93561-2.4613,1.43494a1.56137,1.56137,0,0,0,1.281.91571,3.31256,3.31256,0,0,1,.206-.82843,7.20217,7.20217,0,0,1,.869-1.05792,2.82894,2.82894,0,0,1,2.88183-.48139c.01251.004.02014.06421.03046.09967l-.35175.52674c.68445-.09,1.076-1.10944,1.61548-1.70179a9.0183,9.0183,0,0,1-.40076,1.40107c-.162.44543-.33654.8742-.54046,1.4002.539-.07489,1.48089-2.051,1.67071-3.34649-.33416-.28534-.67328-.15906-.94159.19275a1.55363,1.55363,0,0,1-1.76135.61554c-.189-.04-.36535-.3003-.633-.53461-.792.49243-3.98761.24829-4.44318-.49725.69726,0,1.3454.00677,1.99347-.00629.11651-.00238.32934-.06513.33362-.13641.03784-.62568.33056-.61506.52545-.81812.546-.56872,1.10083-1.10632,1.65423-1.6485.03565-.03491.08869-.00458.15418-.00458-.02374.13593-.04291.22-.05243.308-.007.06433-.00134.13366-.00134.37335.33343-.51154.60223-.92395.87109-1.3363l-.07092-.16895-.56037.71539-.04889-.12616c.08313-.24249.16633-.485.30018-.87536-.48462.43768-.8877.80176-1.29084,1.16583a.93064.93064,0,0,1,.05463-.51739c.37933-.4704.76123-.93494,1.15356-1.36341.07172-.07824.19489.02106.2945.03125.29034.02991.54394.75281.91913.12488-.33857-.26355-.64142-.49933-.94428-.73505l.07691-.32641.46.42285c.57477-.79907.78363-.90186,1.19391-.43311-.31415.14746-.56049.26313-.79126.3714.41131.38043.83087.76844,1.28595,1.18927.00372-.97534.29406-1.382.68255-1.20868a3.70062,3.70062,0,0,0,1.17377.39215,1.23381,1.23381,0,0,0,1.24847-.8103c.07758-.14953.26252-.09466.398-.13385l-.12884.69715a1.50823,1.50823,0,0,0,.34515.11108c.62366.05969,1.24982.06049,1.87116.16638.58.09888,1.154.319,1.73278.45337.20075.04663.43848.12006.606-.0329.54377-.49634.57611-.49634.62818.5874l.3883.26978-.3811.35876.34906.41272c-.37958.24579-.69013.58429-1.01227.63111-1.22021.17755-2.44421.26092-3.66687.37689-.02234.00214-.04559-.02789-.05048-.03113v-.50787c-.13018.73022-.47033.70416-.75909.861a2.5679,2.5679,0,0,0-.39368.33954l.02845.17847h.50055c1.33441.00036,2.66955-.05194,4.00293.01892.94537.05023.911.05456.74774,2.01086-.002.02313-.00336.04694-.00727.069-.12133.6861-.43921.86884-.75109.96-.132.03864-.33875-.14123-.42139-.35168a1.82724,1.82724,0,0,1-.05786-1.4693,1.23508,1.23508,0,0,0,.05639-.33222c-.21844-.19848-.40887-.34619-.58618-.53845-.26611-.28851-.42309-.11474-.44116.516-.02789.97437-.29291,1.24366-.73633.71119a10.16494,10.16494,0,0,1-.587-.84748v.90839c-.59864-.66974-2.19587-.88068-2.55909-.3786.14228.46716.14228.46716.62842.00689a6.0776,6.0776,0,0,0,.71826.41755c1.0185.404,2.1084.13171,3.05622,1.24633a.85715.85715,0,0,1,.25232.63849c.05768,1.06641.22723,1.35675.78753,1.45777a3.73418,3.73418,0,0,0,.548.104,1.53974,1.53974,0,0,0,.4256-.12433c-.33881-.73144-.66346-.91211-.9347-.64178-.06634.06616-.19793.08838-.23706.01257a.97914.97914,0,0,1-.07238-.494.25194.25194,0,0,1,.24115-.16028c.20428.00983.4201.1709.60949.08808a16.5163,16.5163,0,0,0,1.45069-.80146l.013.5138c.13183.13238.31341.19812.34918.37317.098.47967.31079.42645.49506.58008a3.04634,3.04634,0,0,1,1.028,1.12658,4.15349,4.15349,0,0,0,1.07745,1.3512c.33789.36285.48688.13574.651-.50562a2.5546,2.5546,0,0,1,.34522-.62719c.02258.047-.02942-.0221-.05322-.11713-.11713-.46753-.22675-.942-.33905-1.414a4.09287,4.09287,0,0,1,.73132-.50324c.113-.04626.35.11151.36536.24591a2.26078,2.26078,0,0,0,.89117,1.58435c-.25262-.0418-.4082-.06756-.56372-.09338l-.01715.23181,1.39819.43653a.48713.48713,0,0,0-.20733-.32c-.41333-.29975-.41895-.37317-.19965-1.07343a1.28683,1.28683,0,0,0-.08478-.56659c-.08844-.25354-.28741-.44934-.30182-.69885-.05188-.89593-.05609-1.80408-.05731-2.70764-.00055-.42346.12787-.57678.36475-.55658.58679.05,1.17517.02777,1.76275.05011.19458.00745.48182-.0766.5636.12451.17145.42163.36127.27661.54248.27179a11.609,11.609,0,0,1,2.34754-.0813,3.82657,3.82657,0,0,0,2.77643-.034,6.12979,6.12979,0,0,1,2.217-.55573c.73529-.10767,1.47729-.525,2.215.035.053.04023.15613-.12707.22827-.21984a3.5241,3.5241,0,0,1,2.10938-1.37824c-.24371.637-.426,1.11359-.63959,1.67175.09491.25715.24445.66236.37274,1.00989-.08636.19653-.27392.44647-.2572.627a1.45144,1.45144,0,0,0,.30774.70575,4.82176,4.82176,0,0,0,.6275.58344l-.038.19018a5.79368,5.79368,0,0,0-1.36658-.45269,5.456,5.456,0,0,0-1.39093.241l-.0177.18531q1.584.40283,3.168.80554c-.41193.1416-.79529.85217-1.23743.21478-.03-.04321-.13635.00586-.16442.07538a1.67028,1.67028,0,0,1-1.30884,1.07806c-1.26508.41315-2.53766.74238-3.80725,1.105a8.70415,8.70415,0,0,0-.97931.29364c-.1399.0581-.2641.25549-.4101.4046l-.14117-.35071c-.38959.2666-.73718.50458-1.08484.74249l.02338.20636c.16369.01868.32727.04724.49115.05457,1.43219.0636,2.865.09717,4.2965.19732.57306.0401,1.1427.23975,1.71534.33429a2.27519,2.27519,0,0,0,.54492-.07208c.16534-.0141.34418-.07153.49.03125a3.73126,3.73126,0,0,1,.0318.79413c.55151-.42688,1.21441-.28046,1.74731-1.02991-2.24377-.775-4.51806-.47272-6.769-.91278a.33982.33982,0,0,1,.22491-.17755,16.58609,16.58609,0,0,0,2.36884-.52667c1.23578-.45893,2.4574-1.059,3.68323-1.61414.23407-.106.42364-.19781.50647.41663.02691.19958.18481.33435.34314.59991a4.451,4.451,0,0,0-.00348-.60925c-.13379-.63873.04236-.84.33038-.94116.56287-.19763,1.00592.257,1.30884,1.416-.40241.26075-.24372.71247-.08173,1.13068a3.82231,3.82231,0,0,0,.39545.81781,1.82164,1.82164,0,0,0,.48437.37927l.06922-.22741c-.2638-.53339-.52759-1.06672-.84595-1.71039.29254.0639.58093.28259.5907-.48529.00061-.04908.19073-.15094.28412-.12287.32214.09693.64044.2406,1.01672.38874-.313-.65247-.58343-1.21631-.85394-1.78016l.08728-.18524c.47479.55835.94482,1.13245,1.426,1.67005a15.34681,15.34681,0,0,0,1.21485,1.24389c.1325.11762.3175.01837.47845.01837l.03729-.16778c.17969.33057.35938.66113.54218.9975V66.17554l.11066-.10437.326.67883-.3136.65448c.16552.14447.38763.21844.40417.37311.076.71094.34961.598.50006.63592.16126-.2655.265-.43036.36518-.603a3.02178,3.02178,0,0,0,.26031-.48188c.226-.6101.5603-.79016.9046-.69561.14594.04.26319.46337.40076.72644.35254-.71094.85547-.39808,1.3313-.38105-.21039.10456-.42078.20917-.685.34052.61646.29095,1.16162.54822,1.69611.80047l-.1546.379c.58514-.16864,1.08123-.29211,1.573-.46173.23926-.08252.3974-.36224.37-.88788-.027-.516-.23944-.546-.43347-.56769-.59894-.06677-1.19989-.079-1.79761-.171-.45264-.06965-.90155-.22895-1.4729-.38031-.28113.34521-.481.40106-.84162.04785.1402-.31116.24646-.77185.40986-.865.3927-.22388.46875-1.383.98962-1.17292a.80575.80575,0,0,0,.11835-.37805c.03973-.64563.2464-.78888.54352-.74762.94018.1305,1.88153.23346,2.82122.37567.44941.068.89612.2005,1.344.30378l-.00861.15649H113.644l-.02789.21478a7.399,7.399,0,0,0,.79919.45917c.25116.10638.37732.34.405.84357.04316.78412.11615,1.56219.16492,2.1936-.46374-.08484-1.01178-.18518-1.55981-.28546l-.01947.22192c.11163.06293.22253.13147.33514.18769.48505.24218.97394.45947,1.45392.73382a.86436.86436,0,0,1,.37359.49646c.132.48487.20166,1.0318.30323,1.58808l-.881.3955.00812.2146c.42017.27124.97083.01282,1.20954.91693-.1344.30951-.241.55494-.34748.80036.11756.14514.23291.40771.35315.41607.701.04883,1.39331-.06481,1.83417-1.3117.22821-.64551.39679-1.36835.5954-2.06708.35943.62354.55554-.33478.93927-.45111l-.767,2.67572c.42871-.15369.58771-.49426.67365-1.03741.10247-.64771.23419-1.27839.35174-1.91742.07379-.40125.2124-.5326.42792-.42035.55249.28778,1.11011.54132,1.65887.85272.34021.193.45954.09137.44391-.55432-.009-.37219.05872-.51312.24408-.52545a.82.82,0,0,0,.25226-.12232c-.16956-.73962-.481-.635-.7594-.51654-.29175.12415-.40869-.09192-.46191-.5932-.05-.47076-.11432-.936-.18274-1.48773l-.53662.719-.11213-.09527c.06031-.52173.12061-1.04346.20795-1.79987.37341.51349.67957.93451,1.02216,1.4057.22027-.82019.73883-.7539,1.22607-.85522a2.25864,2.25864,0,0,0,.68872-.19812c.34674-.19544.61939-.02362.87409.4284a3.33042,3.33042,0,0,0,.51916.77521,3.75907,3.75907,0,0,0,.76782.45947l.01032-.14453c-.40729-.53723-.81458-1.0744-1.30664-1.72351.14776-.26373.29962-.53485.45086-.80487a1.247,1.247,0,0,0-1.28869-.28021,1.32545,1.32545,0,0,1-.63574.33612,4.26148,4.26148,0,0,1-.92048-.0755l-.00744.06952.67242.47955h-1.88684l-.004-.1427q.48285-.38379.96582-.76758a.46906.46906,0,0,0-.39019-.04449c-.59723.07971-1.1944.18573-1.7923.20764-.16126.00592-.34027-.21118-.47864-.40912a1.59519,1.59519,0,0,1,.04309-.58356c.39441-.06225.83234-.28509,1.17554-.03851a1.478,1.478,0,0,0,1.04.40479c.82971-.12073,1.6593-.24317,2.48846-.37623.05628-.009.10846-.1123.16254-.17169l-.00977-.19439q-.68015-.05851-1.36023-.11707a2.49372,2.49372,0,0,1,.84748-.322c.50439-.05554,1.03235-.59192,1.51007.20917.02307.03869.129-.08167.18909-.15125.09234-.10705.17828-.23431.219-.28888.24213.18067.43646.32556.68274.50922l-.15778.57361a1.12367,1.12367,0,0,0-.08917.34124c.17993.7439.3747,1.47461.59418,2.32l.1629-.64764.23169.61065c.20978.0575.38617.1059.668.18323-.25171.32941-.4.52356-.61676.80713.26959-.08978.44946-.15515.63031-.20837.16992-.05.34088-.08728.51135-.13013a.52808.52808,0,0,0-.20593-.25433c-.37683-.28675-.38733-.46552-.17682-1.13984a14.66737,14.66737,0,0,0,.27887-1.46417c.23444.33393.51343.6756.7583,1.09094.66352,1.12525.656,1.201-.05755,2.1875.63476,2.11481,2.55059,3.89252,3.22125,2.9889-.33911-.24036-.67847-.4809-1.07654-.763.29749-.53724.57385-.52594.75378-.23468.3053.49432.58783.38006.90943.18133a1.23272,1.23272,0,0,1,.54108-.18231c.46191-.03961.86114-.31452,1.14929-1.06128.17944.58295.34729.62878.4743.12018a5.24,5.24,0,0,0,.04212-.96881,1.83226,1.83226,0,0,0-.46973.15069c-.0863.05207-.14337.264-.229.34131-.28418.25629-.57532.48413-.95069.79486.06464-.30456.08258-.38721.09979-.47046q.06867-.33151.13678-.66339a1.42239,1.42239,0,0,0-.36474.12927c-.16651.10938-.332.39039-.42389-.18536-.01434-.09-.1463-.13806-.227-.15668-.16986-.03912-.35089.00824-.50879-.08966a.9318.9318,0,0,1-.1452-.51428,7.8318,7.8318,0,0,1,.52752-1.05261c.04224-.07178.17951-.05561.22376.02252a1.09807,1.09807,0,0,1,.10589.48212c-.00079.07922-.121.17846-.19458.22491a4.82364,4.82364,0,0,1-.47039.23181c.44677.59369,1.03613.5788,1.37127.06543a3.1587,3.1587,0,0,0,.2165-2.0711c-.07209-.40912-.17749-.51337-.3794-.30475a3.21357,3.21357,0,0,1-.3941.30768,3.56969,3.56969,0,0,1,.55084-2.39869l.09991,1.239c.16584-.59387.272-.97382.37812-1.35376l.4566.69739c.09351-.229.20111-.49231.2497-.61127-.04871-.47748-.08747-.85773-.12623-1.238l.07428-.163c.34131.70141.3783-.16553.58136-.27326l.09406.80341.60132-1.77264a.24057.24057,0,0,1-.09009-.12952,1.58917,1.58917,0,0,1,.12158-1.31848c.07514-.13233.29114-.19812.34986-.09668a1.37689,1.37689,0,0,1-.02961,1.13623,2.05269,2.05269,0,0,0-.04046.285l.32959.11939-.27826.38147.09735.08648-.09943.84522.09351.15582q.15015-.48138.30017-.96283l.13873.1872q-.18722.729-.37451,1.458a3.67215,3.67215,0,0,0,.63873-.63653c.09681-.101.26-.189.33063-.10034a1.47026,1.47026,0,0,1,.09094.62121c.00116.29285-.03662.58631-.05774.87952l.116.103c.101-.35981.2229-.70466.29694-1.08387.0675-.34558.07385-.73309.124-1.0935.05694-.40985.19665-.511.38647-.28858.28882.3385.57422.68763.872,1.04535-.27423.52014-.27173.58509.01978,1.04486a10.14771,10.14771,0,0,0,.55566-2.98095l-.35254.56085c-.12176-.20758-.22937-.39087-.29919-.50989-.19318.196-.34808.44189-.51972.49713-.12066.03882-.26409-.18182-.39733-.28656.10925-.183.21429-.377.32983-.54419.0531-.07684.13037-.08886.1908-.15112.43328-.44617,1.254-.13959,1.60089.5636a3.22091,3.22091,0,0,0,.44824.56427c.03271-.42572.03857-.68244.07507-.922.03235-.21234.07556-.53479.154-.58661a4.18674,4.18674,0,0,1,1.63416-.91076,4.44867,4.44867,0,0,1,1.76038.60961c.09954.04.18823.17926.338.32856a10.33964,10.33964,0,0,0-1.41626,1.12982,2.84227,2.84227,0,0,0-.03424,1.18078c.06659.47529.25921.2389.41668.09436a1.22968,1.22968,0,0,1,1.74482.3039c-.18427.37976-.37214.76672-.55988,1.15375l.08887.16961c.04132-.03534.102-.04852.121-.10943.18811-.60315.41479-.81562.75146-.37165.05506.07257.19172-.00732.27015-.089.215-.224.38415-.23541.59912.0824.157.23206.39648.25952.59918.37818l.01764-.13-.43952-.33594.01813-.184c.103-.0205.22077-.11389.30652-.0498.56165.4198,1.11822.86566,1.67084,1.32745a.63643.63643,0,0,1,.11914.38092c-.03278.14087-.13056.29468-.20886.31189-.11322.0249-.29059.01215-.34144-.12225-.32916-.8703-.76043-.54871-1.16876-.40607a6.22507,6.22507,0,0,0-.82135.431l.0304.11871.55151.12818-.00073.22009c-.21082.05377-.42163.10761-.72748.18567.22168.09808.35834.16083.49548.21887.98346.41608,1.5954,1.70032,1.56971,3.42652a12.76741,12.76741,0,0,0,.96563-1.10322c.2923-.413.25287-.72192-.07422-.98406-.08557-.06855-.16619-.15937-.26922-.25953a1.19408,1.19408,0,0,1,.14343-.30413c.26489-.20484.53449-.38758.80243-.578.08185.471.15686.9469.24854,1.41071a2.07817,2.07817,0,0,0,.18231.63092c.25146-.0816.16546-.45776.13751-.777-.04785-.546-.089-1.094-.13538-1.67053.6955-.21637,1.37671.10272,2.02118-.49786a3.04076,3.04076,0,0,0-.4884-.69251c-.09277-.10492-.24316-.15723-.27411-.30505-.1253-.59827-.40259-.56678-.654-.72681a4.05631,4.05631,0,0,1-.9-.84485,1.6899,1.6899,0,0,1-.03058-.73816c.01849-.13727.15582-.21563.31726-.4176-.06.31842-.08472.4494-.07465.396.92566.61407,1.83026,1.21411,2.69489,1.78766.07312.37176.13031.66223.19055.9682.69543-.78907.71631-.7934.98413-.33826-.12811.91663-.24848,1.77826-.371,2.65552.50958.12793.5935-.0257.56317-.92163.34033-.27289.68518-.54938,1.03009-.82587-.71485.04065-.72132.03784-.83545-.33618.67248.02679,1.37756.09161,2.08185.06933.43231-.01361.46942-.21222.21045-.96966a7.23349,7.23349,0,0,1,2.57763.35675c-.6654.83819-1.4743.39825-2.26.98315.89148,1.02869,1.73938,1.771,2.78089,1.70075-.20978.57245-.08844.79126.42651,1.092a1.25766,1.25766,0,0,1-1.29474.85547c-.58337.04773-.60663.00152-.55761-1.08808a.85129.85129,0,0,0-.05481-.1784c-.25538,1.1344-.80634.35132-1.20459.87l.68371.29187c-.11029.22754-.22571.36377-.34942.402a2.32507,2.32507,0,0,1-2.034.07849c-.27985-.17-.67877.22437-.5979.45209.09106.25629.32062.33673.49328.47858.04181.03436.097.00634.14588.01275a6.02843,6.02843,0,0,1,1.7503.26612,19.25086,19.25086,0,0,1,2.07569,1.33056,3.28031,3.28031,0,0,1,1.37842,1.52088,4.86784,4.86784,0,0,0,.64532.92175c.23279.30658.45776.51923.7196.02246a.39663.39663,0,0,1,.41529-.18268c.47577.06781.94958.1875,1.42419.28583.25745.05334.47028.21118.574.73.07855.3927.25116.43274.36737.12134a9.22275,9.22275,0,0,0,.631-2.01782,5.37066,5.37066,0,0,1,.38965-1.44635c.10345-.2475.1889-.52259.28241-.78522l-.0705-.097-.46057.55292a3.86367,3.86367,0,0,1,.29639-2.22821c.3175-.66467.686-.96661,1.1112-.266.25892-.82269-.10009-1.08813-.36969-1.50714.30451-.1781.54743-.32019.79041-.46222l-.00214-.20087a2.52071,2.52071,0,0,0-.35931-.1911c-.2088-.071-.29767-.32965-.189-.64331a7.95238,7.95238,0,0,1,.48841-1.00018,1.64358,1.64358,0,0,1,.12927.3996,7.11911,7.11911,0,0,1,.03229,1.18188c-.08081.80011-.20008,1.58771-.32087,2.37061-.08648.56042-.22418,1.094-.29711,1.65936-.09058.70172.03491,1.02856.39862,1.19281a6.48,6.48,0,0,1,.0393-.7359c.19513-1.14887.40338-2.28949.61158-3.45831-.05024-.11481-.11744-.26868-.18152-.41529a1.50363,1.50363,0,0,1,.07068-.21832,1.73085,1.73085,0,0,0,.28051-1.59778,1.20137,1.20137,0,0,1,.21741-.50165c.21655-.28338.4502-.51843.67542-.77777a3.42518,3.42518,0,0,1,.275-.33508c.20715-.17835.42084-.32855.63184-.49036l-.03846-.16821q-.31438-.08469-.62872-.16943a1.54758,1.54758,0,0,1,1.75732-.37592q-.25488.29022-.50976.58038l.04608.23554c.51044-.28272,1.02033-.56952,1.53168-.84619.19983-.1081.40558-.49939.60968-.03076a3.33319,3.33319,0,0,0-.19477.72406c-.03179.95587-.41265,1.52636-.90765,1.28485.05884-.26294.11719-.52338.17548-.78388l-.10584-.11059q-.3825,1.15292-.76507,2.30578l.09735.26239c.38836-.26.77673-.52,1.18841-.79553l.60407.057.006-.20185-.44635-.12176a7.41671,7.41671,0,0,0,.30444-1.31635c.05463-1.14721.442-1.46148.93872-1.60425a1.49243,1.49243,0,0,0,1.00373-.91705c.08807-.19147.2594-.24249.43988-.39862-.09491.36585-.14551.59979-.21338.81372-.11017.34766-.22846.68652-.34973,1.02051-.06873.18939-.15918.352-.21833.55017a.749.749,0,0,0,.11408.26874,2.22313,2.22313,0,0,0,.31372-.42969c.11822-.22.21881-.47479.327-.7146a1.38216,1.38216,0,0,1-.43176,1.38916c-.10742.09662-.24969.056-.35394.15973a4.523,4.523,0,0,0-.76074.8963,3.50706,3.50706,0,0,0,.08453.89l.08313-.02686-.19733.49365c.28351.39234.54676.34467.7356-.1101.2699-.65015.53662-1.22541,1.02246-.95936.02344-1.06842.164-1.29327.70178-1.14062-.07257.31842-.1402.61517-.21539.94531l.32611-.06585c.28052,1.327.54334,1.97613.93878,2.2854-.02246-.81373-.05792-1.60138-.05755-2.389a1.43459,1.43459,0,0,1,.16217-.6803c.36108-.50134.76556-.89178,1.11639-1.41571.94617-1.4129,1.87183-2.87616,2.80945-4.31036a4.20193,4.20193,0,0,1,.41223-.46521c.04425.52325.04834.9497.12012,1.32916a2.136,2.136,0,0,1-.11023,1.34033,2.69009,2.69009,0,0,0-.04853,1.23035c.05518.27063.304.43145.48206.56616a5.12522,5.12522,0,0,0,.66357.35944c.11487.064.22632.15087.33936.22741l.04511-.20379-.51056-.57007a17.14282,17.14282,0,0,0,.26886-5.40137,1.22673,1.22673,0,0,0-.1438.39941c-.0365.14862-.07691.29383-.11866.45185L182.061,54.43l.80065-.85c.00721-.52942-.242-1.53882.397-1.767a2.53766,2.53766,0,0,1-.1156-.53058c.012-.53851.03869-1.07581.06738-1.61212.91559.0166,1.83118.02948,2.74676.04388a.89916.89916,0,0,1-.01257.37781c-.40631.64221-.03528.96863.071,1.42187l.67437-.552-.03314-.17267-.53778-.07611-.16425-.29571c.56287.15649.29505-.36859.33374-.66059l.39728.03852-.004-.06958c.42817.006.85633.01629,1.28449.02051a2.39523,2.39523,0,0,0,.823-.3349l-.09912-.24738a2.80717,2.80717,0,0,1,.12555-.6709c.28619-.32416.54718-.24646.77484.43.24017.71375.39435.619.59478-.18359a.37324.37324,0,0,1,.24164-.29236,2.66386,2.66386,0,0,1,.75385.02582c.51214.08929,1.01318.60638,1.519-.37488a1.71737,1.71737,0,0,0,.19141-1.31506c-.096-.50751-.22724-.96918-.38916-1.64392a5.72792,5.72792,0,0,0,.90185,1.39721c.28717.186.61719-.08142.92835-.14978a4.25065,4.25065,0,0,1-.55493,1.0871q-.29664.45025-.59351.89984c.2851.39136.51624.67926.71271-.13855.1394-.5802.46875-.51452.67065.02643.244.65369.74549.76032.94989.255-.31677-.48755-.64215-.98847-.96759-1.48938l.06122-.31433c.44556.36132.89111.72271,1.35852,1.1018-.0116-.47143-.01855-.7522-.02527-1.02466l1.027.57831a7.74,7.74,0,0,1,.09235-1.24463c.19445-.59173.43463-1.08044.64428-1.58148.40265,2.02149.40265,2.02149.58667,2.12329-.12573-1.01111-.25158-2.02356-.39947-3.21325l.58319.24078c-.15906-.524-.31061-1.02356-.48963-1.61328a1.982,1.982,0,0,1,.66181,1.11993c.00165.00922.02307.00525.03528.00745v-.5633a4.88021,4.88021,0,0,1-.32581-.80206c-.03229-.13971-.07458-.257-.11139-.38659l.733-.18433c-.05065-.68652-.39276-1.20313-.06781-1.90228.15009.59436.26691,1.17651.42737,1.65893.15894.47772.36194.8548.5456,1.27606L200,42.05249A9.59873,9.59873,0,0,0,199.6709,40.88733ZM83.975,13.21191l-.01142-.37316q.35046-.07471.70093-.1493l.01776.37818ZM2.92865,32.69879l-.31073-1.11188.07776-.219.56543.125C3.13757,31.94086,3.03314,32.31982,2.92865,32.69879Zm3.14862,27.023a1.48011,1.48011,0,0,1-.5022.01892l-.03192-.25189a2.5893,2.5893,0,0,1,.4635-.35767c.06531-.03015.15381.12446.23169.19495C6.18524,59.46436,6.14142,59.69922,6.07727,59.7218ZM197.4082,35.48645c.00605.009.01111.02136.01709.0307a3.84019,3.84019,0,0,1-.30114.36731c-.05152-.23126-.10035-.4693-.1438-.71844A.65964.65964,0,0,1,197.4082,35.48645Zm-4.41406-1.9101c.41473-.03784.81287.13672,1.1438.82471l-.01233.35553a4.48321,4.48321,0,0,1-1.17584-.03876c-.11865-.03155-.21942-.52423-.32837-.80572C192.74554,33.79468,192.86853,33.58783,192.99414,33.57635Zm-20.5152-17.31811a3.04327,3.04327,0,0,1,.62049-.5293l.03326.28363c-.24121.79077-.47888,1.58948-.72784,2.36316-.0354.11017-.14692.18787-.18622.12409a1.21968,1.21968,0,0,1-.15613-.52954A2.68985,2.68985,0,0,1,172.47894,16.25824Zm-25.84546,6.0343c.26587-.97241.52106-1.0932.81586-.63446l.01416.34979ZM168.83557,15.493c.09973.01746.26862.30505.27118.48193a1.98738,1.98738,0,0,1-.16064.87275,3.9648,3.9648,0,0,1-.99067.37542C168.11328,15.799,168.43042,15.42212,168.83557,15.493Zm-1.22613,1.18713a1.04673,1.04673,0,0,1,.06616.4629c-.032.15271-.13758.35186-.18085.31012a10.197,10.197,0,0,1-.69153-.82764C167.1684,16.07385,167.39142,16.42029,167.60944,16.68011Zm-.32868-1.63049q-.49695-.08624-.99383-.17242C166.60022,14.13641,166.97491,14.22162,167.28076,15.04962Zm-4.18-.36725c.04718-.44116.13977-.84893.22113-1.31884a1.96838,1.96838,0,0,0,.212.26074,2.2114,2.2114,0,0,0,.28974.17621,6.04635,6.04635,0,0,1-.04053-.72272,3.46869,3.46869,0,0,1,.13294-.98126c.1098-.19159.36987-.28614.4248-.11457.24756.77356.47553.55707.7124.0683.20886-.431.41358-.5238.63983.01209h-.36956c.12976,1.091-.23932.61981-.40619.91028.22235.91278.56616.97546.91955,1.06793-.44488.58569-.86651,1.14068-1.29425,1.70367a.51509.51509,0,0,0,.04962.09961c.1391.13641.3913.23474.39881.40747.03229.74127-.23017.53815-.386.597a7.60058,7.60058,0,0,1-1.10565.31115.90959.90959,0,0,1-.37146-.07745l-.00025-.33618a2.34207,2.34207,0,0,0,.47388-.00812,1.31994,1.31994,0,0,0,.33392-.18542,2.87141,2.87141,0,0,0-.09381-.63227.59186.59186,0,0,0-.36535-.28985c-.12744-.028-.25861.06085-.38813.09851C163.09021,15.3783,163.06592,15.00861,163.10077,14.68237Zm-7.43634.31195c.51269-.011.82458.39051.87555,1.43091.02429.496-.0633,1.0296-.12757,1.92835-.33654-.75745-.62811-1.41358-.96044-2.16138a1.40262,1.40262,0,0,0,.02954,1.11414,5.027,5.027,0,0,0,.51587.83654c-.379.61518-.67127.43006-.79786-.50183-.139-1.02325-.22021-2.10046-.30078-2.89844A2.20768,2.20768,0,0,0,155.66443,14.99432Zm-9.6518,2.1745c.17737.07331.35822.23816.53125.19422.174-.04419.34034-.29621.416-.368.18988.48034.34918.84472.48914,1.25445a6.26288,6.26288,0,0,1,.145.72254c-.09626-.01978-.20783.03619-.286-.07257-.32428-.45093-.49951-.249-.60253.79248h.49536c-.103.53869-.17871.93463-.25446,1.33056-.13989-.18719-.3443-.28009-.40784-.57879a13.17145,13.17145,0,0,0-.62756-3.01441Zm-.9284,3.94861.00726.34741q-.48256.07654-.96509.153l-.00164-.50037Zm-9.81122,34.167c-.13959.33423-.31616.27814-.4328-.06445.11938-.33453.20837-.58362.30548-.85565A.85462.85462,0,0,1,135.273,55.28442Zm-20.59088,2.20966a2.04824,2.04824,0,0,1-.05567.62952.71146.71146,0,0,1-.53247-.05481,1.39609,1.39609,0,0,1-.02557-.63794,8.60333,8.60333,0,0,1,.48462-1.01453C114.62134,56.9624,114.6723,57.22546,114.68213,57.49408Zm-2.445-1.38226c.16913-1.1529.27258-1.19764.7345-.382a6.97843,6.97843,0,0,0,.40039.57788l.01715.25909q-.43716.11948-.87427.23889l-.03222-.19311.27111-.40491ZM127.596,27.89276l.10943-1.60651.299.45429C127.95209,27.96619,127.95209,27.96619,127.596,27.89276Zm-1.67029-.96637.016-.34985q.5571.18951,1.1142.379C126.63092,27.99811,126.30444,26.93134,125.92566,26.92639Zm14.91748-5.52563a1.61953,1.61953,0,0,1,.68732-.16059l.01593.3758c-.19214.48651-.27582,1.4544-.66895,1.054a2.925,2.925,0,0,1-.30316-.54132C140.6629,21.87555,140.73682,21.47192,140.84314,21.40076Zm-6.10132.16656c.09387.11841.18067.27515.31195.47974l.03809-.69556c.83569.64581,1.68506,1.30219,2.60534,2.01343-.2149.08087-.419.31927-.57794.18634-.4292-.35925-.79364-.00977-1.17566.39825-.1112.11878-.27264.05317-.39361-.058-.27735-.25488-.54389-.59-.82636-.90546-.0899-.49737-.18048-.99884-.31213-1.72729A3.08518,3.08518,0,0,1,134.74182,21.56732Zm-1.49347,2.60761c.102.07666.33679.0907.174.71484a3.10916,3.10916,0,0,0,.08991.5824c-.15936,0-.33045.0708-.48621-.02655a.95972.95972,0,0,1-.23089-.57666C132.82983,24.22009,133.02246,24.00525,133.24835,24.17493Zm-1.35126.50848c-.55517-.27826-1.019-.51074-1.48272-.74316C131.07648,23.21924,131.60889,23.48694,131.89709,24.68341Zm-1.694.87824a5.42814,5.42814,0,0,1,1.16584.23822c.49725.20922.64422,1.39483.30072,2.61651-.06507-.3457-.11847-.62958-.18207-.96777l-.21253.48956-.087-.07312c.0556-.50958.11121-1.01916.16943-1.55249l-1.15967-.39606Zm.67951,3.31451c-.36823-.13934-.65643-.05719-.7674.90912-.00671.0581-.20074.09295-.2406-.02155-.15838-.45532-.29016-.97418-.44915-1.53027C129.82892,27.66852,130.46576,27.91687,130.88257,28.87616Zm-1.12622-5.715.03131.48883q-.433.18074-.866.36139l-.02734-.47284Zm-1.42188,1.6294c.12213.04706.24811.19775.364.1532.41168-.15833.69854.18469.76922.98278-.28357-.13317-.5484-.24664-.81128-.38519a1.66808,1.66808,0,0,1-.44177-.31811,1.98788,1.98788,0,0,1-.064-.45288A.65357.65357,0,0,1,128.33447,24.79059Zm1.41309-6.19489a1.70379,1.70379,0,0,1-1.79346.39075C128.55243,18.84656,129.1051,17.425,129.74756,18.5957Zm-2.35236.30249-.0534.24018c.16626.29724.33252.59448.46875.83813-.34186.41657-.69458.12842-.7782-.85846Zm-.20886,4.68073c-.33044.69226-.63788.66791-1.12958,0Zm.31409,1.939c-.6391,1.00464-1.11322-.13281-1.61627-.32177C126.40112,25.10089,126.92377,24.81934,127.50043,25.51788Zm-3.39038-2.18512a3.299,3.299,0,0,1,.64911-.20691c-.18812,1.13575-.385,1.45228-.64521,1.13385a1.21626,1.21626,0,0,1-.16406-.529A.68731.68731,0,0,1,124.11005,23.33276Zm-8.89881-3.41784c-.11969,1.11273-.359,1.6101-.67523,1.87048-.29352.24158-.55255.02545-.8385-.616C114.21863,20.73755,114.68079,20.35455,115.21124,19.91492Zm-9.933-.68817c-.23126.059-.42377.27337-.54724-.48572-.02887-.17774-.23792-.1543-.3805-.23236C104.60663,17.70984,104.859,17.90375,105.27826,19.22675Zm-5.0249.48376-.179-.56409.02832-.13073q.43588.43772.87439.87793l-.36755,1.39294c-.20935-.36462-.45734-.79651-.77808-1.35516C100.025,19.83008,100.12079,19.78,100.25336,19.71051ZM99.772,21.1347c-.56488.39826-1.04516.04273-1.58-.30694C98.6355,20.15436,99.45856,20.27594,99.772,21.1347ZM87.40448,55.58881a.81111.81111,0,0,1-1.39691,0Zm-2.23956-1.03388a6.4644,6.4644,0,0,1-1.222.2616c-.06647.00677-.19525-.30054-.19794-.46845a.76268.76268,0,0,1,.18451-.49615,1.98172,1.98172,0,0,1,.6203-.13355,2.60183,2.60183,0,0,1,.57312.09522.46528.46528,0,0,1,.18958.33288C85.318,54.28015,85.22827,54.53558,85.16492,54.55493Zm.10479,1.3205a3.71057,3.71057,0,0,1-.61.22583,4.44084,4.44084,0,0,1-.95191.08038c-.07489-.0025-.21575-.23914-.20819-.33331.01783-.2226.1131-.61218.16578-.60553.53405.06708,1.06591.20025,1.59832.31488Zm8.9892-34.74176.29309.35614.04962-.2796.2948.17651.01374.39545c-.1626.09936-.32849.29657-.48651.25988-.08826-.0205-.1634-.42932-.24445-.66314Zm-2.48065-.425-.19989-.61493c.04016-.0368.0686-.09155.08392-.07275.33063.408.66175.784,1.0445.63983.033-.01245.12835.32287.11529.38849a8.3392,8.3392,0,0,1-.26989,1.05633c-.03095.09027-.15363.04865-.21265-.036a2.193,2.193,0,0,1-.125-.47259c-.07843.24438-.1554.48449-.215.67016-.22979-.4165-.42456-.76947-.679-1.23065C91.50806,20.90222,91.61682,20.82428,91.77826,20.70868Zm-2.35986-.032h.86193l-.00671.29638-.86114-.10968ZM76.26727,25.43988l.17993-1.19745c.24347,1.05365.4549.69776.66419.01892l.09381.075.06043,1.64917-.11005.11737C76.97437,24.67584,76.5603,26.07684,76.26727,25.43988ZM80.67285,21.89a2.34994,2.34994,0,0,1,.34229-.57812c.12353-.09253.26739.00128.40234.01349-.01746.2027-.03778.40423-.051.60888a.81744.81744,0,0,0,.01208.24225,1.54832,1.54832,0,0,1-.23248,1.62171c-.13257.20172-.39563-.18579-.60077-.31159l.01874-.3161.34607-.568Zm1.6164,5.04828L81.76337,28.132l-.06354-.10285.198-1.09039-1.07233.83368-.04456-.27942c.177-.22864.35407-.45721.55365-.715l-.30694-.31177.0274-.28424C81.44965,26.42383,81.8443,26.66559,82.28925,26.93823Zm-2.39472-7.95367c.03461-.66937.171-1.25849.45319-1.21546a2.587,2.587,0,0,1,1.26513.62775l-.675.39618.237.82947c-.262.5332-.99207.73346-1.205.25378A2.7252,2.7252,0,0,1,79.89453,18.98456Zm-1.36719,4.78821a4.08638,4.08638,0,0,1,.13489,1.37207c-.02618.46508-.41778.32611-.74731-.26081C78.07544,23.9306,78.36078,23.36884,78.52734,23.77277Zm-.92706-2.27588c.04608-.96259.38959-.59174.70093-.87665a3.94607,3.94607,0,0,1-.11694.63306,10.09032,10.09032,0,0,1-.69208,1.10736c-.09949.12945-.23853.05011-.425.07415a.4501.4501,0,0,0-.01764.20667c.08722.791-.1253.82538-.29883.70514a6.10742,6.10742,0,0,1-.77594-.82233C76.53925,22.16754,77.05963,21.83862,77.60028,21.49689Zm-1.71954,4.29052q-.38792.17953-.77576.35914l-.022-.33857c.24145-.43383.493-.7232.79-.36108Zm-.26789-3.70282.02539.44684-.92449.22065-.01587-.36451Zm-.88433,1.18323c.34936-.09308.71667.27576,1.06884.63941a2.13024,2.13024,0,0,1-2.19507.57653l-.01763-.2478C73.96521,23.89514,74.33875,23.37164,74.72852,23.26782ZM57.83417,13.4054a.83333.83333,0,0,1,.23578-.23005,2.95687,2.95687,0,0,1,.30517-.16558c-.08789-.28943-.1394-.459-.26929-.88654.57886-.15466,1.0763-.2876,1.60773-.42957-.18854,1.46039-.37994,2.08631-.7113,1.83667-.35407-.26672-.61212-.10968-.89716.33417-.05456.085-.16058.01575-.22888-.06421A1.22293,1.22293,0,0,1,57.83417,13.4054Zm-.94611,40.39044c-.098.59277-.17712,1.13055-.28345,1.6477-.0155.0755-.17376.11548-.244.0633a5.339,5.339,0,0,1-.514-.49537l.03418-.11438a.65021.65021,0,0,1,.17785.04682c.26087.14764.4217.05847.44379-.54785C56.51746,53.98315,56.64691,53.745,56.88806,53.79584ZM39.45038,57.6059c.00537.051-.08429.207-.11414.19207-.2138-.10681-.42334-.24536-.63421-.37378l.05566-.32959a4.65359,4.65359,0,0,1,.58734.21283C39.39288,57.33118,39.43866,57.49371,39.45038,57.6059Zm-2.35364,1.26269c-.01941.11536-.13733.27844-.1839.24957a5.36142,5.36142,0,0,1-.58368-.475l.07337-.35541a3.47065,3.47065,0,0,1,.57812.22815A.55108.55108,0,0,1,37.09674,58.86859Zm-8.82446,3.31824a2.64086,2.64086,0,0,1-.217.22088c-.06238.05036-.14582.03656-.19477.11146-.321.491-.70166.47558-1.11389-.14771a1.29691,1.29691,0,0,1,1.36188-.50763C28.16846,61.8761,28.218,62.07458,28.27228,62.18683ZM44.01166,10.545q.26989.54456.53973,1.08918-.01977.15884-.03937.31774c-.1499-.01812-.34362.10627-.43774-.09277a5.55222,5.55222,0,0,1-.16193-1.119ZM31.88141,8.53455c.01025.55859.03094,1.03021.02417,1.49908-.00678.4671-.307.86493-.45929.63019-.14-.21564-.27527-.45191-.44293-.729C31.255,9.20117,31.49988,8.54559,31.88141,8.53455Zm-.68884,5.38751H29.69983C29.85773,13.01855,30.66931,12.78973,31.19257,13.92206Zm-2.24634-1.61524c.11194-.11731.24994-.06384.37628-.08624l.02417.24793-.306.42718a1.26062,1.26062,0,0,1,.10742.33008c.01672.307.00958.62292.012.9353-.10955-.05041-.24945-.00867-.32171-.17218a8.18453,8.18453,0,0,1-.28748-1.01636A3.95681,3.95681,0,0,1,28.94623,12.30682Zm-1.903-.91217a1.49859,1.49859,0,0,0-.358,1.48664c-.24829-.145-.43268-.24909-.61615-.36286a.531.531,0,0,1-.091-.12256C26.20679,11.266,26.78967,10.724,27.04327,11.39465Zm-7.241,2.46564a4.06015,4.06015,0,0,0,.55145-.23248c.02332.12427.06622.35229.09845.52356-.36487.3977-.69586.7586-1.02533,1.11767C19.37909,14.44989,19.52148,13.9295,19.80231,13.86029Zm-.42694,4.47827.09155.20526q-.24774.87552-.49561,1.751l-.10748-.20984A2.56453,2.56453,0,0,1,19.37537,18.33856ZM16.1748,12.0777c.13764.13324.30127.19055.40253.42944a4.199,4.199,0,0,1,.01026.86755l-.134.09449-.36053-1.06256ZM6.23859,32.48926c.12817-.369.22985-.801.40014-1.40552.07117.88544.13922,1.73224.21741,2.70618-.21979-.20655-.48627-1.44568-.71484-.03C5.97522,33.21643,5.98114,33.23065,6.23859,32.48926ZM4.83325,34.028c-.209-.65394.00342-.82435.2096-1.04719.00921,1.61725.527.61713.76263,1.08606C5.55048,34.65424,5.03558,34.66119,4.83325,34.028ZM4.49731,46.89478a2.53628,2.53628,0,0,1,.30976-.65485.69814.69814,0,0,0,.90478-.09247,1.45542,1.45542,0,0,1,.16059.36127C5.43707,46.63092,5.00171,46.75317,4.49731,46.89478Zm6.4419,15.94976-.37549-.59393c.107-.11945.21521-.335.32062-.33014.09643.00446.18982.24732.28454.38507Zm1.34149,4.78192a2.49389,2.49389,0,0,1-1.993,1.13239,5.26228,5.26228,0,0,1,1.69311-2.38275q-.14072.41876-.28137.83752l.071.13678a1.30045,1.30045,0,0,1,.24035-.30774c.08551-.05249.18708-.00952.28156-.00842A2.24527,2.24527,0,0,1,12.2807,67.62646Zm.61115-8.75292c-.14429-.06562-.31452-.06128-.42652-.21381a3.81587,3.81587,0,0,1-.39319-.82324c-.12976-.33393-.24218-.55475-.48181-.28467-.10962.12353-.27508.06525-.48883.10211a16.12851,16.12851,0,0,0,.56476,3.19318l-.06592.15625a2.36181,2.36181,0,0,1-.34015-.44544c-.15741-.325-.2821-.70721-.4317-1.04742-.12659-.28772-.27435-.48511-.48315-.11975q.0942.325.188.64862l-.05176.17383c-.25092-.27179-.50275-.54078-.75257-.81617-.24572-.27093-.48944-.5484-.79278-.88891.308-.38025.63464-.78345,1.00384-1.23914-.39813-.67822-.92486-.59558-1.44018-.858a1.097,1.097,0,0,1,1.29846-.28662,5.64075,5.64075,0,0,0,1.23029.01923l.01721-.29767-1.87213-.9029.02337-.25109c.29621.09478.59436.17187.88819.28912.31488.12567.60608.26227.894-.23334.20593-.35449.39337-.16437.44513.36176a1.25189,1.25189,0,0,0,.56567,1.06292l.05139-.72705.32422-.08209c.152.6211.2934,1.18128.42615,1.749a5.638,5.638,0,0,1,.17627.9173A5.32445,5.32445,0,0,1,12.89185,58.87354Zm1.2882,4.736.39673.95154-.29779.84948q-.27612-.51543-.55212-1.031Zm-.34631,3.12073c.37848-.57514.63934-.39411.75409.50305C14.3233,67.05688,14.10205,66.90924,13.83374,66.73029Zm.36792-11.90717a2.45931,2.45931,0,0,1,.57806,1.64313A2.857,2.857,0,0,1,14.20166,54.82312Zm3.38684,5.64673c.16437-.364.28394-.6286.40344-.89325a1.57117,1.57117,0,0,1,.1463.489C18.102,60.5379,17.922,60.60754,17.5885,60.46985Zm12.21674,3.25836a3.28392,3.28392,0,0,1-.86451.98926,10.15561,10.15561,0,0,1-2.04.79748c-.22345.06391-.47565-.13141-.70179-.28009-.06652-.04376-.0888-.33435-.1314-.51184.0827-.06054.17254-.1947.24676-.16821.2478.0885.40674-.07806.61707-.35809a1.20166,1.20166,0,0,1,.921-.50922c.559-.00043.871-.26086,1.15918-1.31445h-.56165L28.439,62.1452c.12963-.0404.27459-.17218.386-.10382a5.44732,5.44732,0,0,1,.93909.73145A.75437.75437,0,0,1,29.80524,63.72821Zm5.06482-6.06531a2.84464,2.84464,0,0,1,.0791-.72674l.10254.20923c.18158.2293.36316.45861.55664.70288C35.31128,58.17322,34.9541,58.09509,34.87006,57.6629Zm.08538,1.0965.00153-.20386h.68738C35.49371,58.99945,35.49371,58.99945,34.95544,58.7594Zm2.33289,2.39868a9.64862,9.64862,0,0,1-1.117-.22253.62534.62534,0,0,1-.2815-.42957.981.981,0,0,1,.116-.57892c.09259-.08239.23767.02722.35614.08387.08929.04266.17743.20776.25751.18835.35278-.08557.51458.36829.7044.75531Zm.10571-1.5683c.55677-.38922.77057-.25171.84272.60291h.83074l.005.20929c-.4867.08484-.97339.16968-1.46942.2561C37.53589,60.31488,37.46509,59.95306,37.394,59.58978Zm1.11347,2.0517c-.17517.15253-.35871.26965-.62445.46094.07855-.85834.32995-.88715.56439-.93647.04016-.00848.11658.10676.12482.18488A.50491.50491,0,0,1,38.50751,61.64148Zm.7652.743c-.19562.23584-.37922.16852-.5633-.14154.15283-.41064.32581-.48267.51648-.25842A.85774.85774,0,0,1,39.27271,62.38452Zm2.50549-2.3526a5.50344,5.50344,0,0,1-.6792.90338,9.473,9.473,0,0,1-.741.6753l.06665.31152c.22925-.17548.4585-.351.74262-.56854-.06861.36517-.13446.71588-.22187,1.181H39.52808c.15875-.46692.26678-.78473.38427-1.13025-.35827-.44428-.672-.02863-1.01312.106-.04474-.46949.07764-.65686.2851-.68512a1.84022,1.84022,0,0,0,1.18011-.998.9446.9446,0,0,1,1.32349-.42694C41.89233,59.49487,41.90765,59.81342,41.7782,60.03192Zm9.48157-5.88458a.81314.81314,0,0,0-.58942.21551c-.407.29157-.90222.14283-1.36084.143-.04578,0-.13324-.24054-.1261-.35162a.46157.46157,0,0,1,.16321-.31452c.12744-.062.26672-.02771.3988-.06384a6.14987,6.14987,0,0,1,1.03351-.29236,4.065,4.065,0,0,1,.99548.17389c.25739-.59753,1.142-.54321,1.33112.3382A2.97777,2.97777,0,0,1,51.25977,54.14734Zm2.65277-.06226-.566-.19091.0285-.35492.5752.15167Zm.39605,2.09937a.73861.73861,0,0,1-.301-.47791,3.587,3.587,0,0,1,.29211-.769c.12006.20538.24005.41077.44416.76013C54.536,55.94513,54.41357,56.208,54.30859,56.18445Zm.9679,3.94147-.01972.78131c-.31811-.02027-.4721-.515-.27587-.94525a1.83625,1.83625,0,0,0,.06994-1.08143c-.041-.37506-.00879-.77935-.00879-1.25622L54.8017,57.547c.01574-.21076.03167-.4231.0589-.78742a4.24056,4.24056,0,0,1,.34643.53949c.33106.74555.66474,1.48938.96875,2.2746a4.78828,4.78828,0,0,1,.13452.917l-.07654.06549.34449.55951C55.99146,61.41174,55.73553,60.33185,55.27649,60.12592Zm1.59607-.7287c-.35376-.13678-.70954-.93213-.77869-1.7732.493.15522.95117.29938,1.4065.44269-.1178.37232-.23365.788-.37769,1.164C57.07849,59.34613,56.9494,59.42694,56.87256,59.39722Zm2.22919,1.53241c-.23664-.03882-.48328-.218-.629.36084-.01764.07-.1557.11505-.19928.05975a3.17043,3.17043,0,0,1-.51221-.78522,3.22178,3.22178,0,0,1,.01349-.84222c-.08612-.02112-.22076-.05426-.35541-.0874l-.00653-.29364a2.08662,2.08662,0,0,1,.911-.0738,3.8189,3.8189,0,0,1,.89154.71222l-.24219.3656.40308.39734C59.23718,60.842,59.16705,60.94031,59.10175,60.92963Zm4.13446-4.38343c-.17218-.35272-.30274-.62011-.43323-.88751l.08545-.23645.55426.38831C63.38348,56.02155,63.32684,56.22339,63.23621,56.5462Zm19.603,3.09748-.10852-.11469q.1713-.58511.34265-1.17016l.0987.10443C83.15479,58.95465,83.13922,59.44769,82.83917,59.64368Zm6.19263-.65692A2.95187,2.95187,0,0,0,88.184,58.584c-.21777-.01983-.46985.07917-.494.71051-.00494.1294-.15106.336-.23511.34144a7.6171,7.6171,0,0,1-1.63812.00781c-.364-.05506-.423-.33991-.3399-1.25647a3.96585,3.96585,0,0,0-.764.52533,1.92528,1.92528,0,0,1-1.364.78393c.16406-.623.29144-1.10656.41882-1.59021l.10358.06269.07287.72583c.305-.2743.58954-.53015.94922-.85364.1601.14831.6582-.15241.91705-.56586.13477-.21521.37421-.18976.614-.29364l-.0622.55322c.62647-.10778,1.23371-.217,1.84143-.31439.23474-.0376.44525-.01306.62122.411.09125.21991.295.26837.49634.43421Zm9.75745,3.50256c-.12616.1004-.24567.24908-.37183.27435-.06824.01367-.2096-.18365-.2096-.28576a4.1022,4.1022,0,0,1,.135-.72468.84592.84592,0,0,1,.01191-.99261c-.36127.18933-.67682.417-.95655-.122.26856-1.35919,1.17169-1.311,1.95471-.24512l-.487.49152c.24433.52313.47028,1.00708.78931,1.69012C99.30011,62.53992,99.03314,62.51349,98.78925,62.48932Zm3.275,1.39343c-.26672.06781-.59979-.02-.77716.25739a5.53068,5.53068,0,0,0-.023,1.47741,2.84872,2.84872,0,0,0-.3078-.57745,1.393,1.393,0,0,0-.472-.23828l-.126-.74127a7.19992,7.19992,0,0,1,1.20453-.657c.16723-.05432.364.226.54736.35419Zm12.56763-3.1347a2.66965,2.66965,0,0,0-.31714.52911.55431.55431,0,0,0,.25848.04816c.03021-.00806.04791-.18793.09589-.24335.09869.783-.53064.96051-.29309,1.97247-.55683-.05853-1.05377-.10016-1.54993-.16516-.96472-.12634-1.92932-.25812-2.893-.40991-.116-.01825-.22608-.174-.33887-.266.05127-.2254.09222-.46246.15655-.67334a5.43046,5.43046,0,0,1,.28156-.77551c.13727-.28046.31091-.49494.45074-.77161a3.081,3.081,0,0,0,.32117-.81024c.09406-.48853.26227-.6781.529-.76911-.0307.522-.54675.76661-.13037,1.5448.29743-1.47442.77912-2.42114,1.6579-2.21557,0,.02557.00171.08368-.00049.14117-.00232.06073-.00836.12091-.01526.21485l.86646-.17926.02563.14715-.3255.45343.00305.15808c.28907-.02752.57819-.05346.86719-.08282.54395-.05524.53522-.051.69031.91772a5.946,5.946,0,0,0,.25439.82215A3.95484,3.95484,0,0,0,114.6319,60.74805Zm1.76837,4.415c-.23755-.04627-.40277.00708-.50391-.12268a1.24541,1.24541,0,0,1-.1756-.65174c.17206-.4765.41944-.45251.73768-.114l-.31287.22693Zm-.37689-2.18067.579-.85809.38379,1.176-.11377.21253Zm.62683-2.00708c.08-.10553.15814-.28717.24054-.29461.07733-.007.15918.1701.319.36254-.18048.17536-.279.34772-.37006.33435C116.77161,61.36761,116.71307,61.11816,116.65021,60.97534Zm.27533,5.91992c-.13587-.35046-.25605-.6607-.4173-1.07684.14038-.17053.31366-.381.46411-.56366-.01367-.336-.027-.66669-.046-1.1344A1.97209,1.97209,0,0,1,116.92554,66.89526Zm.3706-6.798a1.15716,1.15716,0,0,1-.48486.27289c-.10761.01715-.22278-.13953-.33453-.21826.08459-.17682.15466-.45514.25689-.509a2.22278,2.22278,0,0,1,.68958-.13549l-.04437-.57819c.061.07959.098.10144.10949.14685A.9442.9442,0,0,1,117.29614,60.09723Zm1.585,7.0835a3.30523,3.30523,0,0,1-.50482.83221q-.11086-.27814-.22168-.55621l.07526-.12671.21814.26129.13653-1.2793.17182-.03674A3.11578,3.11578,0,0,1,118.88116,67.18073Zm1.3122-2.42066c.25757.02313.37311.35156.36566.7926a9.47861,9.47861,0,0,1-.11273.98792c.16852.28064.33166.55243.49487.82428l-.04706.20471c-.10516-.01758-.29052.01459-.3031-.06024-.13867-.822-.33453-.2804-.51379-.10266-.05249.05206-.10114.118-.239.28119-.02924-.46332-.07758-.8266-.06775-1.184.01049-.382.0758-.75849.054-1.22516-.16015.36084-.32025.72162-.53619,1.20813C119.34344,65.57007,119.83435,64.72784,120.19336,64.76007Zm2.308-3.21771c-.04364.18841-.19915.37982-.31305.39453-.717.09228-1.4356.1496-2.15411.18774-.22382.01191-.42206-.14013-.40082-.68713.02258-.58179.25623-.43835.44275-.45276.38068-.02936.76129-.06134,1.14191-.09228l-.00354-.19526.18567.40058a5.63774,5.63774,0,0,1,.62091-1.53851c.26465-.25916.65246-.05683.98626-.05683l.02308.22308c-.24915.371-.4983.742-.72,1.07221A2.74251,2.74251,0,0,1,122.50134,61.54236Zm-2.17889-2.85687.85339-.30506.0282.35541q-.43214.0823-.86432.16449Zm2.92914-2.839c-.38147.3847-.87317.52881-1.15522,1.07983-.50958.99542-1.11944.82593-1.71643.92877-.14648.02527-.30066-.1134-.4884-.19232-.16528.5105-.30408.48035-.65832-.31055a10.07876,10.07876,0,0,1,1.07867-.45324c.45807-.13282.92383-.16956,1.38135-.3075a1.34762,1.34762,0,0,0,.48987-.42c.3045-.344.59075-.75025.90228-1.06708.14123-.14368.36987-.40894.4541.09467A1.165,1.165,0,0,1,123.25159,55.8465Zm1.29992.9945c-.20276,0-.42517.09357-.59954-.04113a2.13667,2.13667,0,0,1-.0954-.86823c.01214-.42627.07751-.84692.1073-1.14282.16052.24774.29632.48724.44738.6839.2696.351.0351.50421-.06188.748l.21649.32825Zm10.71064-.32806c-.05909,1.92169-.31842,3.66894-1.58063,4.0227-.09424-.97265-.18738-1.934-.28949-2.9884.20318-.52051.46564-1.19275.756-1.93664.22724.86737.19226,1.02874-.1499,1.32977a.70259.70259,0,0,0-.1695.42743,3.72685,3.72685,0,0,0,.21625.91528c.03235.08075.24512.01953.31366-.10309a3.73518,3.73518,0,0,0,.31568-.84478c.38928-1.48761.66131-1.66968,1.47265-.82227Zm1.06292-4.36243-.07013-.16125a.695.695,0,0,1,.013-.19153c.12659-.21863.25916-.42438.38984-.63428a1.5315,1.5315,0,0,1,.07269.31922C136.60345,51.72113,136.4621,51.93158,136.32507,52.15051Zm1.39765,7.321-.1247-.0752a2.1242,2.1242,0,0,1,.25855-1.47174l.12445.07819Q137.85184,58.73718,137.72272,59.4715Zm1.60522-4.563-.43518-.32776.29749,1.03534c-.38672.30334-.59339-.111-.822-.52411l-.02753.63715-.08008.06787c-.09979-.28754-.19958-.575-.34979-1.00788a6.68248,6.68248,0,0,0,.16107,1.93543l-1.256,1.14966c-.43427-2.02137.04828-3.46192,1.14654-3.56641a.835.835,0,0,0,.44843-.23407,1.54945,1.54945,0,0,1,1.75183.09515C139.81061,54.15839,139.45642,54.06714,139.32794,54.90851Zm10.37592,5.35138L149.23,60.1123a3.77881,3.77881,0,0,1,.067-.38165,3.13656,3.13656,0,0,1,.44433.202Zm8.42077-2.442a2.174,2.174,0,0,1-.7088-.38043,2.611,2.611,0,0,1-.08563-.65613,7.98315,7.98315,0,0,1,.85962.35266c.075.04016.125.2508.18646.3833C158.29181,57.62415,158.19843,57.84009,158.12463,57.81787Zm3.0174,6.9776,1.12652.51325C161.52942,65.70514,161.14136,65.52936,161.142,64.79547Zm4.445-3.79455c-.09491-.31733-.17157-.57355-.28327-.94672.2796.07953.51959.14783.87293.24829C165.92755,60.5976,165.7561,60.80066,165.587,61.00092Zm1.06719-3.38862a3.68725,3.68725,0,0,0-.43121.45911l.05866.25037.26544-.04645c.02173.80994-.61756.98352-1.25269.37329.23188-.40283.45935-.798.74866-1.30078-.37836-.11005-.61041-.20514-.8158.39142-.25311.73535-.58984.84894-.85479.4201l.35443-.2464c.02044-.452.04126-.912.05938-1.3117l.64106.21411.03094-.283-.357-.17871c.108-.49121.349-.6142.63739-.38123.20331.16425.43219.21472.63318.38684a1.5933,1.5933,0,0,1,.47491.61707A.47619.47619,0,0,1,166.65417,57.6123Zm3.103.1612c-.03772.11011-.14844.21374-.20843.18536a.553.553,0,0,1-.12165-.35937c.029-.44739.08722-.88782.13453-1.33087l.11016.10858.06763.8518.27948-.40094C169.93353,57.14557,169.85889,57.47656,169.7572,57.7735Zm.98163,1.8894a2.38751,2.38751,0,0,1-.28162-.43957c.06824-.12281.1449-.35846.20282-.34271.09375.02557.17524.21636.31128.40637C170.86017,59.47205,170.76666,59.69019,170.73883,59.6629Zm.9184-2.23541a2.79671,2.79671,0,0,1-.74506.69849,3.45185,3.45185,0,0,1-.79962.286,7.72666,7.72666,0,0,1,1.19531-2.67426c.13086.22248.23389.42365.35059.58966A1.22567,1.22567,0,0,1,171.65723,57.42749Zm1.5036-.5849c-.08545.07874-.21216-.00708-.35675-.02173.25726-.49042.42352-.80731.64587-1.23114C173.52,56.32379,173.37469,56.64551,173.16083,56.84259Zm2.68683-.06018a1.92524,1.92524,0,0,1-.45044.20874l-.02686-.09521a3.35229,3.35229,0,0,1,.36743-.539c.0694-.06695.18231.03174.27558.05561C175.959,56.5401,175.91742,56.72919,175.84766,56.78241Zm.21832,1-.11414-.18323.43378-.97107.09705.15625C176.46631,57.311,176.34027,57.66406,176.066,57.78241Zm3.66266-.80585.84308-1.22284.0874.23676A1.2954,1.2954,0,0,1,179.72864,56.97656Zm16.439-14.06512c.5893-.26874.95685.51947.97364,2.01117C196.686,44.70569,196.45074,43.85815,196.16766,42.91144Z" fill="#e4003b"/>
    <path d="M182.72357,19.28278l-.01562.056.043-.02362Z" fill="#e4003b"/>
    <path d="M182.54883,18.8078l-.05786.19983.2326.27515c.01367-.04993.02735-.09925.04193-.14417Z" fill="#e4003b"/>
  </g>
</svg>
