<svg id="a0e09f68-2fe7-467e-9220-65706844680c" data-name="Слой 1" xmlns="http://www.w3.org/2000/svg" viewBox="0 0 136.68134 104.00114">
  <title>logo-min</title>
  <path d="M114.995,50.542c0-.61.687,0,1.373-.61.61,0,1.22-1.373,1.906-1.981,1.3-1.3,1.3-2.593,2.592-3.889.687-1.9,1.906-3.277,3.279-5.183.609-1.3,1.219-3.279,2.592-4.5-.686-.686-.686,0-1.373.61h-1.219c-1.373.609-1.983,1.3-3.279,1.3,0-1.906,2.592-1.3,3.279-3.279.609,0,.609.687.609.687,1.3-.687,1.983-1.3,3.2-1.3,1.373-.61,1.983-1.983,3.279-2.593,0,1.3-.686,1.3-1.3,1.983,0,0-1.3,1.219-1.983,1.906-1.219,2.592-1.9,5.183-4.5,7.089-1.3,3.964-3.88794,6.556-6.479,9.758C116.36707,50.542,115.684,51.152,114.995,50.542Zm62.889-29.117v.61c0,.61-.686.61-.686.61,0,1.371-.61,1.371-.61,1.371-.61,1.22-1.3,1.22-1.3,2.592l-.686.61h-.61c-1.3,3.2-3.887,5.185-5.793,7.776-3.27905,1.981-5.183,3.887-9.14794,5.793a2.26108,2.26108,0,0,1-.61,1.373c-1.3,0-1.3-1.983-1.983-3.279a16.98691,16.98691,0,0,1-1.9-3.279,18.83042,18.83042,0,0,0-3.279-6.4c0-.687-.61.609-.61.609a6.8009,6.8009,0,0,1-.609-2.592s0-1.3-.687-1.3l-.686-1.3h-1.221c-.686,0-1.98095,1.3-2.59094,1.981-2.592,2.593-5.869,5.795-8.462,8.386-1.3,1.981-3.277,3.2-5.183,5.183a10.88225,10.88225,0,0,1-2.592,3.2,11.84512,11.84512,0,0,0-2.592,2.592c-1.906,1.373-3.279,3.279-5.184,4.574-1.906,1.981-3.887,2.592-5.87,4.573-1.219.61-2.592,1.906-4.5,3.2l-.686.61c-1.906,1.373-3.812,3.279-6.4,4.574a18.49258,18.49258,0,0,1-3.277,3.887h-.687a7.8164,7.8164,0,0,0-3.2,3.279l-1.98205,1.219a2.5003,2.5003,0,0,1-.61,1.373c-1.982,1.906-3.887,3.2-5.183,4.5-.61.686-.61,1.3-1.3,1.3a2.30007,2.30007,0,0,0-.687,1.981c-.609,0-1.219.61-1.9.61a6.553,6.553,0,0,1-3.279,3.887c-.61,1.3-1.906,2.593-2.592,3.889a18.40932,18.40932,0,0,0-2.592,4.573l-1.22,1.22c-.686,1.371-.686,2.592-1.373,3.277a17.02327,17.02327,0,0,0-1.9,3.279.923.923,0,0,1-1.3,0,16.067,16.067,0,0,1-10.978,1.906c-1.372-1.3-3.964-1.3-4.574-3.279,0-1.906,1.3-2.592,1.983-3.812A5.512,5.512,0,0,0,58.661,94.6a12.6804,12.6804,0,0,1,1.3-1.981,13.07211,13.07211,0,0,0,2.592-3.2c1.3-1.3,2.592-1.983,2.592-3.2,1.983-.687,2.592-1.983,4.574-3.279a2.46813,2.46813,0,0,0,.61-1.3,4.8,4.8,0,0,0,2.592-2.592c2.592-1.983,5.794-3.887,8.385-6.48v-.686a12.01648,12.01648,0,0,0,3.279-2.592c2.592-1.22,3.888-3.2,5.183-4.5a22.393,22.393,0,0,1,3.887-3.279s.61-1.219,1.3-.609c.687-1.983,1.906-2.593,3.27906-3.889.61-1.3,1.906-1.906,2.592-3.277,1.22-.61,1.22-1.22,1.22-1.22a7.073,7.073,0,0,1,1.981-.686c0-.686.61-1.3,1.3-1.906l.686-.686a.624.624,0,0,1,.55774-.6839c.01733-.00175.03479-.00279.05224-.0031l.61-.609h0a12.68084,12.68084,0,0,1,1.981-1.3c.61-1.3.61-1.906,1.3-2.593l1.906-1.9a.673.673,0,0,0,.687-.65869q.00037-.01415,0-.0283l1.3-1.906c.609-.686.609-.686,1.3-1.371l.686-1.22c0-.686,1.22-1.373,1.22-2.592,1.371,0,1.371-.686,1.371-.686a4.5339,4.5339,0,0,1,1.906-2.593c1.3-2.592,2.59205-3.277,3.27906-4.5.609,0,1.219-1.371,2.592-1.371a9.11078,9.11078,0,0,1,1.906-2.592,2.46,2.46,0,0,1,1.3-1.906,8.71926,8.71926,0,0,1,3.2-3.279,29.60063,29.60063,0,0,1,3.964-4.5c0-1.3-.687-1.3-.687-3.277,0,0,.687-.61,1.3-1.22a2.49425,2.49425,0,0,0,.61-1.373c1.373-.609,1.983-1.9,3.27905-3.2V3.267a1.40694,1.40694,0,0,0,1.3-1.373c.61,0,.61-.61,1.3-1.219h.686a2.072,2.072,0,0,1,1.22-.687,9.91927,9.91927,0,0,1,1.981,1.3c3.2-2.592,5.18506,3.2,7.776,4.574,1.3,1.906,3.2,3.2,5.183,5.793a3.50009,3.50009,0,0,1-.61,1.981c.61.61,1.22-.686,1.906,0,0,.61.687.61,1.3,1.22.61.686.61,0,1.3,0,.687.686.687,1.373,1.3.686l.61,1.906c1.983,0,2.592.686,3.964,1.373h0a1.89,1.89,0,0,0,1.22.61h.686l.686.609h0c1.906,0,2.592,1.373,3.812,1.373Zm-14.255,7.776h.61c-.61-.687,0-1.983,0-1.983a.843.843,0,0,1-1.19189.02712L163.02,27.218c.002.607-.68506,1.98.611,1.98Zm-1.981-2.593a.671.671,0,0,1,.65564-.686q.0152-.00035.0304,0V20.739c-.68506,1.903-1.29505,3.886-.68506,5.866Zm-1.22-2.592c0,1.22-1.371,2.592-.686,3.2.001-.001,1.297-1.983.68689-3.203Zm-.686-9.758a.624.624,0,0,0-.63477-.613c-.01709.00031-.0343.0013-.05127.003.00195.607,1.37293.607.687.607Zm-.686,9.072c0,1.906-1.22,3.887-.61,5.87a21.57928,21.57928,0,0,0,.61194-5.875Zm-4.5-16.238a2.45,2.45,0,0,0-1.906-1.219c-.683,1.216,1.223,2.589,1.91,1.216ZM151.277,4.5v.687c1.373,0,.686-.687.686-.687Zm-.61-1.906v.687c.61707-.002.61707-.689.004-.689Zm-23.326,23.327c1.981-1.3,3.19995-3.277,4.573-4.5a6.71373,6.71373,0,0,1,1.906-2.592c.686-.687,1.906-1.983,2.592-2.592V15.55h0a2.08707,2.08707,0,0,0,1.3-.686,73.60933,73.60933,0,0,0-9.75806,9.761s-1.219.608-.609,1.294Zm-5.793,7.089c2.592-1.219,5.183-2.592,7.775-3.811a27.68373,27.68373,0,0,1,4.5-5.185v-.689a3.05707,3.05707,0,0,0,.686-1.906,2.41488,2.41488,0,0,0,1.22-1.981c1.373-2.593,3.27906-3.2,3.964-5.185-1.373,0-1.373.61-1.983,1.3a7.25358,7.25358,0,0,1-1.3,1.906s-.686.686-1.3,1.373a10.33429,10.33429,0,0,1-2.592,2.592c-1.3,1.906-3.2,3.2-4.574,5.183l-1.9,1.22h-1.3c-.609.686-1.3,1.981-1.98205,2.592.00928-.002-1.89673,1.37-1.20972,2.589Zm-27.9,30.493a11.64378,11.64378,0,0,1,3.2-2.592c3.279-1.983,5.87-4.574,9.147-7.166a.78481.78481,0,0,1,0-1.22c.61,0,.61-.686.61-.686,1.3,0,.61-.686,1.3-1.3,1.3-.61,1.906-1.983,3.279-2.592a16.4431,16.4431,0,0,0,2.592-3.889c-1.373,0-1.373,1.3-1.981,1.906-1.983,1.983-4.574,3.279-6.481,5.87-.686,0-.686,1.3-1.906,1.3-1.371,2.592-3.964,3.887-5.183,6.479-1.983.687-2.592,1.906-4.574,2.593Zm-19.439,30.492c-1.906,1.22-2.592,3.812-3.887,5.793v.61c1.3-.61,1.3-1.219,1.3-1.219a8.627,8.627,0,0,0,1.3-1.983c.60211-1.982,1.28912-2.592,1.28912-3.202Zm7.775-13.645v-1.3a10.32135,10.32135,0,0,0,1.3-1.3v-.687l.61-.609.687-.61a2.39982,2.39982,0,0,1,.686-1.373,2.12509,2.12509,0,0,0,.61-1.219c.609-.687,1.3-1.373,1.3-1.373-1.906.686-5.185,1.373-6.48,3.964a2.645,2.645,0,0,1,1.983.61c-.687,1.3-1.373,2.592-1.983,3.887a9.22168,9.22168,0,0,1-2.592,2.592c-.61,1.906-1.982,2.592-2.592,4.5-1.3,1.373-1.983,3.964-3.2,5.185,0,0-.686,1.981-1.373,1.981-.609,1.981-1.219,2.592-1.906,4.574-.686,0-1.3,1.9-1.9,1.219a39.53353,39.53353,0,0,1,4.5-7.775c1.3-3.812,3.887-5.795,5.183-9a13.49972,13.49972,0,0,0,2.592-3.279c.687-1.3,1.3-2.592,1.906-3.887-1.906-.61-3.2,1.3-5.183,1.981A45.029,45.029,0,0,1,70.324,83.625l.609,1.9c-.609.687-.609,1.906-1.219,2.593,0,1.9-1.373,1.9-1.373,3.887a5.0239,5.0239,0,0,1-3.2,3.2l-.61.686v.686a8.42548,8.42548,0,0,0-1.981,1.22,2.26016,2.26016,0,0,1-.61,1.373s-1.981,1.219-3.277,0c0-1.373.686-2.593,1.906-2.593.686,0,.686,1.22.686,1.22a6.148,6.148,0,0,0,3.277-2.592c.61-.61,1.22-1.906,2.593-2.592.609-2.593,1.9-4.5,2.592-7.776,0,0-1.373.686-1.373,1.373l-.61.609c0,.61-1.3,1.3-1.3,1.983-.686,0,0,.61-.686.61,0,.609-.61,1.3-.61,1.981-.61.61-1.3,1.22-1.981,1.906-1.22.686-1.22,2.592-2.592,2.592v-1.3h0c.686-.61,2.592-1.981,1.981-3.2-1.3,3.2-4.574,5.183-6.479,8.385,0,.61,1.3.61.686,1.3,1.906.687,2.592,1.3,3.812,1.3h0l1.371-.61a23.45767,23.45767,0,0,1,1.906-1.983c1.906-2.592,4.5-5.183,5.87-7.775a2.00007,2.00007,0,0,0,.61-1.3,17.46388,17.46388,0,0,1,1.3-1.3,2.03011,2.03011,0,0,1,.686-1.3c1.219-2.593,3.2-5.185,3.812-7.776a1.339,1.339,0,0,1,.686,1.906,35.95388,35.95388,0,0,1-2.592,3.964v.609a.624.624,0,0,0-.6839.5577q-.00266.02607-.00311.05231s-.609,1.373-1.219,1.373v.61l-.686.609c-.687,1.373-1.906,3.279-2.593,4.574l-.686.61-.61.686c0,.686,0,.686-.609.686a2.07286,2.07286,0,0,0-.687,1.22v.686c-.686.687-1.906,1.3-2.592,2.592l-.686.687c2.592,0,3.964.61,5.869,0v-.687c1.3-5.183,4.5-8.461,7.776-11.054A36.246,36.246,0,0,1,81.984,80.349Zm-.686,3.887c-1.219,0-1.219,1.3-1.219,1.3s.612-.691,1.222-1.301ZM143.504,22.643c0-.61-1.22095,0-1.22095-.61-.686,0,0-.61-.686-1.3-.687,1.3-1.3,2.592-2.59205,3.277,0,1.22-1.3,1.22-1.3,3.2l-1.3,1.3c1.3-.686.687-1.906,1.906-1.3a.6.6,0,0,1-.58984.61q-.01006.00016-.02014,0s-.609.686-1.3,1.373l-.686.609c-.61.61-1.22,1.983-1.906.61,0-1.219,1.3-1.219,2.592-1.219,0-1.373-1.3-.687-1.3-.687a8.218,8.218,0,0,1,1.983-2.592l1.906-1.906c0-.686.686-1.371,1.3-1.981l1.3-1.983c.686,0,1.3-1.219,0-1.219.686,1.219-.687,0-1.3.61a6.746,6.746,0,0,0-.61,1.981c-1.983.61-1.37305,1.906-3.27905,2.592.687-1.371.687-1.981,1.906-1.981,0-1.983,1.983-3.2,2.59205-4.574-.609-.61,0-1.906,0-1.906-1.9.687-2.59205,3.279-4.5,3.889,0,0-.686,1.981-1.3,1.981v1.908c-1.3,1.3-3.2,3.277-3.88794,5.183a10.232,10.232,0,0,0-1.906,1.3c-.686.61-.686.61-1.37305,1.3-1.9,1.3-4.5,1.906-6.4,2.593-.687.686-.687,1.3-1.373,1.3h-.61c-.61,1.3-1.981,2.592-2.59094,3.887,1.98095,0,4.574-1.906,5.793-.686,0,1.371-1.219,1.981-1.219,2.592-1.373,0-.687,1.373-1.983,1.981,0,.61,0,.61-.61,1.3a.67193.67193,0,0,0-.686.65764q-.00037.01468,0,.02935c-.686,1.219-1.906,1.906-2.592,3.811-1.3.687-1.906,3.279-3.887,2.593.609-1.22,2.591-2.593,3.887-3.812.686-3.964,4.5-5.183,5.183-8.462-1.906,0-2.592,1.3-4.5,1.906,0,0-1.37305.686-.686,1.373,0,0,.686-1.373,1.906,0l-.61.609c-.61,0,0,.61,0,.61h-.61c-.686,1.373-1.98206,1.981-2.592,3.279-1.37305,1.3-2.592,2.592-3.964,3.887a2.161,2.161,0,0,0-.61,1.3c-.609,0-.609.686-.609,1.3a19.532,19.532,0,0,0-2.593,1.981,2.25618,2.25618,0,0,1-1.371.61c-1.906,1.983-2.592,2.592-3.812,3.2-3.277,2.592-5.87,4.574-9.148,7.166-1.906,1.3-4.5,2.592-5.793,4.574,1.3,0,2.592-1.373,3.2,0a16.563,16.563,0,0,1-3.2,3.811,3.08494,3.08494,0,0,1-1.3,2.592c-.687,1.373-1.3,2.593-1.906,3.964l-1.373,1.22c1.981-1.22,3.964-4.5,5.87-6.4,1.3-2.592,3.887-5.183,5.869-7.166a11.52535,11.52535,0,0,1,2.593-3.2h.609c.61-.686,1.3-1.371,1.983-1.371a10.84482,10.84482,0,0,1,1.219-1.906,2.126,2.126,0,0,1,1.37305-.687l1.906-1.906c1.906-1.3,2.59095-2.592,3.887-3.277,0,0,.61-1.22,1.3-.61a16.46643,16.46643,0,0,1-3.277,3.887c-2.592,1.906-5.18506,4.5-7.776,6.48a15.74014,15.74014,0,0,1-3.812,3.2c-2.592,3.277-5.183,5.87-7.165,9.758.609,0,1.3-.61,1.981-1.3v-.687c.61-.609.61-.609,1.22-.609v-1.3a25.4976,25.4976,0,0,0,2.592-1.906l1.371-1.373.61-.61a.6.6,0,0,1,.59082-.609c.00647-.00009.01282-.00009.01917,0a16.75683,16.75683,0,0,0,3.279-3.964,2.289,2.289,0,0,0,1.9-1.22c3.279-1.981,4.574-4.573,7.166-5.87a14.32928,14.32928,0,0,1,4.574-4.5l.61.61.609-.61c.687-.686,1.373-1.371,1.983-1.371h.609a1.79977,1.79977,0,0,0,.687-1.22h1.3l.61-1.981c1.981,0,1.981-1.3,3.277-1.983v-.609c1.3-1.3,2.592-3.2,3.887-4.574,0-.61.61-1.219,1.3-1.906.686-1.3,1.3-2.592,1.3-2.592a9.42427,9.42427,0,0,1,1.98095-3.887,2.16091,2.16091,0,0,0,.61-1.3l.61-.687c0-.609.686-1.906.686-1.219.686,1.219-.686,1.219-.686,2.592a2.12979,2.12979,0,0,0-.61,1.219v.687a30.13269,30.13269,0,0,0-1.983,3.887c-.609.61-.609,1.983-1.219,2.592,0,.61-.686.61-.686.61l1.9-1.219a2.69276,2.69276,0,0,1,.687-1.983c.686-1.3,1.3-2.592,1.3-2.592.61-1.3,1.3-1.3,1.3-1.3a2.38667,2.38667,0,0,0,.686-1.3s.61-1.3,1.22094-1.3c0,0,.686-.687,1.371-1.3a2.131,2.131,0,0,1,1.22-.61c.686-.687,1.373-2.592,2.592-1.983a2.05,2.05,0,0,1-1.906,1.983l-1.906,1.906a11.47169,11.47169,0,0,0-3.277,4.5c.686,0,.686-1.22,1.906-1.22a2.35717,2.35717,0,0,1,1.371-1.981l.61-.61c.61,0,.61,0,.61-.686a2.126,2.126,0,0,0,1.373-.687v-.609h.609a1.9998,1.9998,0,0,0,.61-1.3,2.38014,2.38014,0,0,0,.687-1.3h1.3c0-1.981,1.3-1.981,1.3-3.2,0,0-.687,1.22-.687.61.69385-1.972,2.59986-2.58,2.59986-4.563Zm6.556-11.588s0-1.981-.687-2.592a7.53379,7.53379,0,0,1-.686,3.812c0,.686,0,1.981-.61,1.981,0-1.3.61-3.2,0-4.573a2.47671,2.47671,0,0,1-.61,1.981c-.686-.61.61-1.981,0-3.2,0,0,0-1.373-.686-1.373a10.47279,10.47279,0,0,1-.686,4.574,1.51,1.51,0,0,1-.61-1.981l-.61.686a.87389.87389,0,0,0-.06567,1.23426.8486.8486,0,0,0,.06567.06574v1.981a2.2561,2.2561,0,0,1-1.371.61,2.09164,2.09164,0,0,1,.686,1.3c0,2.592,1.906,3.279,3.277,5.185h.61s.61-3.889.61-5.185h0a8.71715,8.71715,0,0,1,1.375-4.507Zm5.183,13.57a93.08612,93.08612,0,0,0,1.219-12.96c-.609-.61-1.219-.61-1.9-1.3-.687,1.3,0,3.277-.687,4.5,0,.686,0,1.373-.609,1.373,0-1.983.609-4.574.609-7.166-1.906.61,0,3.887-1.906,3.887-.686-.686.687-2.592,0-3.887-.686,1.981,0,4.573-1.3,5.793,0-1.906.61-3.812.61-6.4V7.779c-1.219,3.277-1.219,6.479-1.906,9.681,0,0,1.3,0,.687.686.609,1.906-.687,3.889,0,5.87.609-1.981,0-4.573,1.219-5.87v-1.9c0-1.373,0-2.593,1.37305-2.593,0,1.906-.687,3.812-.687,5.795v1.977c0,1.906-1.3,4.5.687,5.793,0-1.3,0-3.2.61-3.887.609,1.906-1.3,4.5,0,6.479a8.69124,8.69124,0,0,0,.609-3.887,2.96872,2.96872,0,0,0,0-2.592c1.375-.689.68909,1.902,1.375,1.294Zm.61,3.887v1.3h0Zm.609-1.906s0,1.906.687,2.593c0-1.373.686-1.983.686-3.279a23.08211,23.08211,0,0,0,.61-6.479c-.61,1.981-.61,4.573-1.3,5.793-1.3,0-.687-2.592-.687-2.592a17.62306,17.62306,0,0,0,1.373-6.4l.61-.687a3.31705,3.31705,0,0,1-.61-1.906c-.686-.686-.686.61-.686.61,0,5.793-1.3,10.368-1.3,14.255.011-.003.011-1.909.62-1.909Zm19.515-4.573c-1.371,0-1.982-.61-3.277-.61a6.72469,6.72469,0,0,0-1.906,2.592,2.483,2.483,0,0,1-1.981,1.22c0,1.371-1.3,1.981-2.593,1.981,0,0,.61-1.3-.609-.61a2.132,2.132,0,0,1,.609,1.22l-1.3,1.981a13.62064,13.62064,0,0,1-1.9,1.3l-2.593,1.3c-1.371,1.3-2.592,1.981-3.964,3.2a9.15666,9.15666,0,0,0,1.37305,3.964c1.906,0,2.592-1.371,3.812-1.371,0-.61,0-1.22.686-1.22h.687a30.51967,30.51967,0,0,1,5.183-3.964c1.219-1.906,3.2-3.811,5.183-6.4a.672.672,0,0,0-.65771-.686c-.0094-.0002-.01892-.0002-.02832,0,.686-1.3,1.3-1.3,1.906-.686.002-1.231,1.377-1.919,1.377-3.212ZM104.015,50.544c0-.61-.61,0-.61-.61l-2.592-1.981a16.443,16.443,0,0,0-2.592-3.889c-.686-1.9-1.983-3.277-3.27906-5.183-.686-1.3-1.3-3.279-2.592-4.5.686-.686.686,0,.686,0a4.8211,4.8211,0,0,0,1.906.61c1.3.609,1.906,1.3,3.27906,1.3,0-1.906-2.592-1.3-3.27906-3.279a.87171.87171,0,0,1-1.3,0,7.03711,7.03711,0,0,0-2.592-.609c-1.3-.61-1.981-1.983-3.2-2.593,0,1.3.61,1.3,1.22,1.983l1.981,1.906c1.3,2.592,2.592,5.183,4.574,7.089,1.219,3.964,3.811,6.556,6.4,9.758.01111-.004,1.38306.606,1.99317-.004Zm1.981-.61-.686.61h0c-.686-.61-1.3-1.983-1.906-1.983-.686-1.9-1.981-2.592-2.592-3.811a.672.672,0,0,0-.65674-.687c-.00976-.00021-.01953-.00023-.0293,0a2.38035,2.38035,0,0,1-.687-1.3c-1.219-.609-.609-1.981-1.9-1.981,0-.61-1.3-1.22-.687-2.592,1.373-1.22,3.279.686,5.18506.686-.61-1.3-1.906-2.592-2.593-3.887h-.609a2.161,2.161,0,0,1-.61-1.3,21.0464,21.0464,0,0,1-6.556-2.593c-.61-.686-1.22-.686-1.906-1.3a2.46,2.46,0,0,0-1.906-1.3c-.686-1.906-2.592-3.887-3.964-5.183v-1.3c-.61-.61-1.219-1.3-1.219-1.3-1.983-1.906-2.592-4.5-4.574-5.185,0,0,1.3,1.3,0,1.906.61,1.373,2.592,2.592,2.592,4.574,1.3,0,1.3.61,1.983,1.981-1.983-.686-1.373-1.981-2.592-2.592a2.127,2.127,0,0,0-1.372-.686c-.61-1.906-1.22-.687-1.22-1.906-1.371,0-.686,1.219,0,1.219l1.22,1.983a24.37468,24.37468,0,0,1,1.981,1.981l1.3,1.906c.687.686,1.3,1.3,1.906,1.906a1.247,1.247,0,0,0-1.22522,1.26842q.00091.0524.00622.10458c1.219,0,2.592,0,2.592,1.219-.686,1.373-1.373,0-1.983-.61l-.609-.609a2.126,2.126,0,0,0-1.373-.687,2.46813,2.46813,0,0,1-.61-1.3c1.3-.61,1.3.61,1.983,1.3l-1.373-1.3c0-1.981-1.219-1.981-1.219-3.2a6.14472,6.14472,0,0,1-2.593-3.277c-.686.686,0,1.3-.686,1.3,0,.61-1.3,0-1.3.61.61,1.981,2.592,2.592,2.592,4.573v-.61c0,1.22.61,1.22.61,2.593a2.50005,2.50005,0,0,0,1.372.609v.61l1.219,1.983h.686v.609l.687.687c.609.686.609.686,1.219.686v.61a4.634,4.634,0,0,1,2.592,1.981s.687,1.22,1.372,1.22a12.26484,12.26484,0,0,0-3.277-4.5l-1.906-1.906a2.114,2.114,0,0,1-1.983-1.983c1.3-.609,1.983,1.3,2.592,1.983a2.475,2.475,0,0,1,1.3.61,2.14793,2.14793,0,0,0,1.3.609,2.263,2.263,0,0,1,.609,1.373c.687,1.219,1.372,1.219,1.372,1.219l1.22,1.373a12.12194,12.12194,0,0,1,.686,3.2c.686,0,1.3.61,1.3,1.983.61.609,1.3,1.219,1.981,1.9a2.38188,2.38188,0,0,1-.686-1.3,9.85237,9.85237,0,0,0-1.3-2.592c-.61-1.3-1.3-3.2-1.981-3.887v-.687a2.13015,2.13015,0,0,0-.61-1.219c0-1.373-1.3-1.373-.61-2.592,0-.687.61.61.61,1.219.61,0,.61.687.61.687a.672.672,0,0,0,.65772.686c.0094.0002.01886.0002.02826,0,.686,1.219,1.3,2.592,1.906,3.812a28.79518,28.79518,0,0,0,1.371,3.277c.61.687,1.22,1.3,1.22,1.906,1.373,1.373,2.592,3.279,3.964,4.574v.609c1.219.687,1.219,1.983,3.2,1.983l.61,1.981h.686l-.686.61a12.53526,12.53526,0,0,1-3.812-2.592,53.87364,53.87364,0,0,0-5.185-4.574,5.513,5.513,0,0,0-1.981-1.906c-1.981-1.9-2.592-2.592-3.2-3.887-1.981-1.981-3.277-3.2-5.183-5.183-2.592-2.592-5.87-5.793-8.462-8.386-.687-.686-1.906-1.981-1.906-1.981h-1.982c-.61,0,0,1.3-.61,1.3l-.687.686v2.593c-.686.609-.686-.687-1.3,0a45.48558,45.48558,0,0,0-3.2,6.4c-.686,1.373-1.371,2.593-1.371,2.593-1.22,1.981-.61,3.964-2.592,3.964a1.031,1.031,0,0,1,0-1.373,52.64751,52.64751,0,0,1-9-5.793c-2.592-2.592-5.183-4.574-6.556-7.776h-.609l-.61-.61c0-1.371-.686-1.371-1.373-1.981a2.14627,2.14627,0,0,0-.61-1.3,2.00025,2.00025,0,0,0-.609-1.3v-.61h.609c1.3,0,1.983-1.373,3.889-1.373h0l.686-.609c-.686.609,0,.609,0,.609l.61-.609a2.14586,2.14586,0,0,0,1.3-.61h0c1.3-.687,1.906-1.373,3.887-1.373l.61-1.906c.686.687,1.373,0,1.373-.686.609,0,.609.686,1.219,0,.687-.61,1.373-.61,1.983-1.22a.923.923,0,0,0,1.3,0,2.122,2.122,0,0,1-.687-1.371c1.983-3.2,3.964-4.5,5.87-6.4,1.906-1.373,3.887-7.166,7.089-4.574.687-.609,1.373-1.3,1.983-1.3a2.087,2.087,0,0,0,1.3.687h.686c.61.609.61,1.219,1.22,1.219a1.476,1.476,0,0,0,1.371,1.373v.609c1.22,1.3,1.906,2.593,3.2,3.2l.61.687c.686,1.3,1.373,1.3,1.373,1.3.609,2.592-.687,2.592-.687,3.887,1.3,1.3,3.279,2.592,4.5,4.5a9.2262,9.2262,0,0,1,1.983,2.592c1.3.687,1.981,1.373,1.981,2.593,1.22.686,1.906,1.371,1.906,2.592a2.33,2.33,0,0,1,1.906,1.371c1.37305,1.22,2.592,1.906,3.279,3.812a5.694,5.694,0,0,1,2.592,2.592,2.12823,2.12823,0,0,1,.686,1.373c.61,1.219,1.906,1.906,2.592,2.592,0,0,0,1.22.61,1.22a2.25612,2.25612,0,0,0,.61,1.371l1.371,1.906c.61,0,.61.687.61.687l1.983,1.9a2.1511,2.1511,0,0,1,.609,1.3l-.609.61h-1.373c-.61-.61-.61-1.906-1.906-1.906a2.30717,2.30717,0,0,0,1.3,1.906v1.983a1.99984,1.99984,0,0,1-.61-1.3c-1.371-1.3-2.592-1.906-3.277-3.279h0v-.61s-1.30005,0-.686-.609c.686-1.373.686.609,1.98095,0,.61-.687-1.3-.687-1.3-.687-1.3-1.3-2.59205-2.592-4.5-2.592,1.219,3.279,4.5,4.5,5.793,8.462a8.68113,8.68113,0,0,1,1.97168,2.631ZM68.338,3.281a.672.672,0,0,1,.65668-.687q.01464-.00032.0293,0c-.68293-.002-1.29291.685-.68293.685ZM67.119,5.187c.609,0,.609,0,1.219-.687a2.13,2.13,0,0,0-1.219-.61Zm-2.593,1.9c.61,1.373,2.593,0,1.906-1.219C65.139,5.87,65.139,6.48,64.529,7.089Zm-3.963,22.108c.686-1.983,0-3.964-.61-5.87.00305,1.3.613,3.89.613,5.873Zm-1.22-14.942a.6.6,0,0,0,.61-.58984q.00018-.01008,0-.02016a.6.6,0,0,0-.607.59291c-.00012.00636-.00006.01274.00006.0191Zm0,12.96c.61-.61,0-1.981-.686-3.2-.684,1.22.00305,3.202.689,3.202ZM56.754,23.325v2.592c.61,0,.61.686.61.686.609-1.981,0-3.963-.61-5.869Zm-1.983,5.87h1.3v-1.98s-.687.61-.687,0a3.50616,3.50616,0,0,1-.613,1.983Zm8.386,6.4c-1.22-1.219-2.592-1.9-3.812-3.2,0,0-1.981-.61-1.981-1.3-1.3,0-1.983-.686-3.2-1.3l-1.373-1.981c0-.61,1.373-.61,1.373-.61-1.373-1.3-1.373,0-1.373,0-1.22,0-2.592-.61-2.592-1.981-1.22,0-1.22-.61-1.22-.61a21.61777,21.61777,0,0,0-1.981-2.592c-1.983-.61-2.592,0-3.887,0,0,1.3,1.3,1.981,1.3,3.2a1.3,1.3,0,0,1,1.981,0,2.39419,2.39419,0,0,0-.686,1.371,48.41346,48.41346,0,0,0,5.869,6.4,29.7528,29.7528,0,0,1,4.5,3.964h1.3a2.1321,2.1321,0,0,1,.609,1.22c.687,0,1.372,1.371,3.279,1.371.67395-1.354,1.285-2.574,1.895-3.947Zm0-7.089c.686-3.887-1.22-8.462-1.22-13.645,0,0,0-1.906-1.371-1.906a1.89,1.89,0,0,1,0,2.592.672.672,0,0,1,.686.6577q.00036.01464,0,.02929c0,2.592.686,4.5.686,6.4.61,0,1.22,2.592,0,2.592-.686-1.22-.686-3.812-1.371-5.793a20.64123,20.64123,0,0,0,.686,6.479c.686,1.3.686,1.906,1.3,3.279.61-.687-.61-1.983,0-2.593,1.29.007.605,1.227.605,1.913Zm.686,1.3s0-1.3-.686-1.3v1.3Zm5.87-12.349c-.687-3.2-.687-6.4-1.373-9.681v.686c-.61,2.592.686,4.5,0,6.4-1.219-1.22-.61-3.812-1.219-5.793-.687,1.3.609,3.2,0,3.887-1.373,0,0-3.277-1.983-3.887a30.94709,30.94709,0,0,1,.61,7.166,2.49994,2.49994,0,0,1-.61-1.373c-.61-1.22,0-3.2-.61-4.5a9.85381,9.85381,0,0,0-1.981,1.3,83.002,83.002,0,0,0,1.3,12.96c.686.61,0-1.981,0-1.981,1.3.686.686,1.981,1.3,3.277,0,1.3.61,2.592.61,3.887,1.373-1.981-.61-4.573,0-6.479,1.373.686.686,2.592.686,3.887,1.906-1.3.687-3.887.687-5.793a2.50033,2.50033,0,0,1,.609-1.373c-.609-2.592-1.3-4.5-1.3-6.4,1.3,0,1.3,1.22,1.3,1.906v2.592c1.3,1.3,1.3,3.889,1.3,5.87.687-1.981-.686-3.964,0-5.87a.672.672,0,0,1,.65582-.68779c.00641-.00015.01276-.00021.01917-.00018Zm5.793-2.592a2.13,2.13,0,0,1-.61-1.22V11.664c0-.61-.686-.61-.686-.61-.687-.686,0-1.981-.687-1.981,0,0,.687,1.981-.609,2.592,0-1.3-.61-3.2-.61-4.574l-.686,1.373c-.687,1.22.686,2.592,0,3.2a2.30007,2.30007,0,0,1-.687-1.981c-.609,1.371.687,3.277,0,4.573a6.75332,6.75332,0,0,1-.609-1.981c-.61-1.22,0-2.592-.61-3.812-.687.61,0,1.906,0,1.906,0,1.906.61,3.277.61,5.183h0a24.26693,24.26693,0,0,0,.609,3.889l.687,1.3c1.3-1.906,3.277-2.593,3.277-5.185a.62394.62394,0,0,1,.55444-.68653q.02866-.003.0575-.00345Zm7.166.686h0v.687c1.219.609,1.906,1.9,2.592,2.592a8.71643,8.71643,0,0,1,1.906,2.592c1.906,1.22,3.277,3.2,4.5,4.5,1.371-.686-.61-1.3-.61-1.3-2.592-3.887-6.479-7.166-9.072-10.368-.004.001-.004,1.297.685,1.297ZM96.24011,30.417a10.22665,10.22665,0,0,1-1.3-1.906l-1.906-.686a3.313,3.313,0,0,1-1.981-1.22c-1.3-1.981-3.2-3.277-4.574-5.183-1.219-.686-1.9-1.981-2.592-2.592l-1.219-1.373a1.8,1.8,0,0,1-.687-1.219c-1.3-1.373-1.3-1.983-2.592-1.983.687,1.983,2.592,2.592,3.279,5.185,0,0,1.219,1.3,1.219,1.981a5.425,5.425,0,0,0,1.983,1.906v.686c1.3,1.906,2.592,3.2,3.888,5.185,2.592,1.219,5.183,2.592,7.776,3.811.68994-1.22-.682-1.907-1.292-2.592Zm68,69.981c-.61,1.983-3.2,1.983-4.5,3.279-3.279.686-7.776,0-10.368-.687l-1.906-1.219a16.66619,16.66619,0,0,0-1.981-3.279,8.67357,8.67357,0,0,0-1.3-2.592,10.15121,10.15121,0,0,0-1.3-1.906,14.62862,14.62862,0,0,0-2.592-4.573c-.61-1.3-1.983-2.593-2.593-3.889a6.45784,6.45784,0,0,1-3.2-3.887.62394.62394,0,0,1-.683-.55876c-.00171-.017-.00281-.03414-.00306-.05124-1.3-.686-1.3-1.371-1.3-1.981-1.30005,0-1.30005-.61-1.981-1.3-1.22-1.3-3.2-2.592-4.5-4.5-.687,0-.687-.687-1.3-1.373a3.30721,3.30721,0,0,0-1.98206-1.219,5.87476,5.87476,0,0,0-2.592-3.279h-1.22a16.47057,16.47057,0,0,1-3.277-3.887c-2.592-1.3-4.5-3.2-6.48-4.574v-.61a.60007.60007,0,0,0,.61-.58986q.00018-.00957,0-.01913h1.373c0,.609.61,1.219,1.219,1.9,2.592,1.3,3.964,3.889,6.556,5.185.61.686,1.22,1.906,2.593,1.906.609,1.371,2.592,2.592,3.811,3.964v.609l.687.61c.686.686.686.686,1.3,1.373.609.61,1.981,1.219,2.59205,1.906v.686s1.3.61,1.3,1.219a.672.672,0,0,0,.65674.687q.01465.00031.0293,0a1.326,1.326,0,0,0,1.221,1.3c-1.906-3.887-4.5-6.48-7.089-9.758a15.98989,15.98989,0,0,1-3.889-3.2c-2.592-1.981-5.183-4.574-7.775-6.48a4.39186,4.39186,0,0,0-1.983-1.9c-.609-1.373,0-1.373,0-1.373h0a7.98883,7.98883,0,0,1,3.27906,3.277s1.906.687,1.906,1.3c.686.609,1.371.609,1.981,1.3l1.983,1.906,1.219,1.371h.686a13.07362,13.07362,0,0,1,2.593,3.2,36.29364,36.29364,0,0,1,6.479,7.166c1.98206,1.906,3.2,5.183,5.183,7.089l-.609-1.906a11.77842,11.77842,0,0,1-2.593-3.964,3.13415,3.13415,0,0,1-1.371-2.592,8.69024,8.69024,0,0,1-2.592-3.811c0-1.373,1.371,0,2.592,0-1.221-1.983-3.812-3.279-5.793-4.574-2.593-2.592-5.793-4.574-9.072-7.166a10.58661,10.58661,0,0,1-3.27906-2.592l-1.219-1.22.61-.686a73.04991,73.04991,0,0,0,7.775,6.48,9.7788,9.7788,0,0,1,3.2,2.592v-.61c-1.906-1.373-2.592-2.592-3.811-3.279-1.37305-1.9-3.27906-3.277-4.574-5.183h0s1.3,0,1.3-.686c1.3,1.371,1.906,2.592,3.279,3.277.609,1.3,1.9,1.906,2.592,3.889,1.219-.61,1.219.609,1.906.609,1.3,1.373,1.9,1.983,3.277,3.279,1.906,1.3,3.2,3.277,5.183,4.5.61.686,1.906,1.981,2.593,2.592a1.8,1.8,0,0,1,1.219.686c1.983,2.593,5.18506,4.5,7.776,6.48a5.34843,5.34843,0,0,0,2.592,2.592c.686.61.686.61,1.37195,1.3,1.219,1.3,1.9,2.592,3.811,3.279.687,1.219,1.983,1.906,2.592,3.2a15.12222,15.12222,0,0,0,2.593,3.2,2.12291,2.12291,0,0,1,.686,1.371l2.592,2.592c.69165,1.211,1.91065,1.897,1.91065,3.803ZM138.32117,84.237c0,.61.687.61.687.61Zm10.368,15.551c-1.221-1.981-1.906-4.573-3.812-5.793a6.536,6.536,0,0,1,.61,2.592,4.92462,4.92462,0,0,1,1.3,2.593,1.325,1.325,0,0,1,1.3,1.219c.60278-.001.60278-.001.60278-.612Zm14.332,0c-1.983-3.2-4.574-5.183-6.557-8.385-.609,1.22,1.37305,2.592,1.37305,2.592l.61.61v1.3c-1.3,0-1.3-1.906-2.59205-2.592l-1.3-1.906c-.687-.686-1.3-1.373-1.3-1.981l-.61-.61c0-.686-.687-1.373-1.37305-1.983a.6.6,0,0,0-.59082-.609c-.00647-.00009-.01281-.00009-.01916,0a1.405,1.405,0,0,0-1.3-1.373c.687,3.279,1.906,5.183,2.59094,7.776,1.3.686,1.906,1.981,2.593,2.592,1.3,1.371,1.9,1.981,2.592,2.592,1.3,0,.686-1.22.686-1.22a2.35987,2.35987,0,0,1,2.592,2.593,2.268,2.268,0,0,1-3.20667.07031q-.03588-.03438-.07031-.07031a2.39352,2.39352,0,0,0-.687-1.373,1.88525,1.88525,0,0,0-1.219-.61c-.686-.61-.686-.61-.686-1.3h0s-1.3-1.906-2.593-1.906c0-1.371-.686-1.981-1.3-1.981,0-1.983-.609-1.983-.609-3.887a2.53988,2.53988,0,0,1-1.37194-2.593.92409.92409,0,0,1,0-1.3c-1.906-1.981-3.812-3.887-5.79395-5.793-1.3-.686-3.2-2.592-5.18506-1.981.61,1.3,1.3,2.592,1.983,3.887.61,1.3,1.906,1.906,2.59205,3.279,1.22094,3.2,3.812,5.183,5.183,9a23.72035,23.72035,0,0,1,4.5,7.775l-1.3-1.219c-1.3-1.983-1.981-2.593-2.592-4.574l-1.276-1.983c-1.3-1.22-1.906-3.812-3.277-5.185-.61-1.906-1.906-2.592-2.593-4.5a11.90108,11.90108,0,0,1-2.592-2.592,9.59963,9.59963,0,0,1-1.219-3.887,2.124,2.124,0,0,1,1.219-.61c-1.219-2.592-3.812-3.279-5.793-4.574l.61,1.983.686.61a6.2344,6.2344,0,0,1,.686,1.981l.61.61.61.609v.687a2.12483,2.12483,0,0,0,1.37305.686l.609,1.906a83.95092,83.95092,0,0,1,4.574,9.681c3.2,2.593,6.4,5.87,7.089,11.054.687,0,.687,0,.687.687,1.9.61,3.811,0,5.79395,0,.609,0-.61-.687-.61-.687-.686-1.3-1.981-1.9-2.592-2.592v-.686c0-.61-.687-.61-.687-.61a2.02983,2.02983,0,0,0-.686-1.3h0s-.61-.686-1.219-1.3c-.687-1.3-1.983-3.2-2.593-4.574l-.686-.609v-.61a2.382,2.382,0,0,0-1.3-.686l-.61-1.3v-.609a12.85308,12.85308,0,0,1-1.982-3.279s-1.3-1.906,0-2.592c.61,2.592,2.592,5.183,3.887,7.776l.686.686c.61,1.219,1.22095,1.219,1.22095,1.219l.686,1.983c1.3,2.592,3.889,5.183,5.87,7.775.61.61,1.219,1.3,1.906,1.983h1.3v.61c1.3,0,1.981-.61,3.887-1.3-.68579-.671.68713-.671.68713-1.282Z" transform="translate(-41.2027 0.04001)" fill-rule="evenodd" opacity="0.18" style="isolation: isolate"/>
</svg>
