<svg id="ee6011e3-7d7b-4cc7-b578-b0ef22c2a6df" data-name="a0e09f68-2fe7-467e-9220-65706844680c" xmlns="http://www.w3.org/2000/svg" viewBox="0 0 143.62355 103.90375">
  <title>logo-min</title>
  <polygon points="0.002 42.518 0 42.518 0.001 42.525 0.002 42.518" fill="#e4003b"/>
  <g>
    <path d="M48.52917,76.23716,49.91229,74.748c-2.66559.05909-5.34784.11853-5.28314,3.0365C46.11737,81.03971,47.303,77.7252,48.52917,76.23716Z" transform="translate(8.56694 0.12386)" fill="#e4003b"/>
    <path d="M36.83649,88.56339A5.69659,5.69659,0,0,1,38.02832,85.526c-.07513-3.38989,2.75562-3.45264,1.2735-6.43073-.0376-1.696-1.382,1.53742-1.34863,3.04084l-1.221,1.72406a5.83145,5.83145,0,0,1-1.18744,3.23736,25.21725,25.21725,0,0,0-3.87421,9.68708s-1.183,3.18194-2.51794,6.40386l2.668-.05914a8.40543,8.40543,0,0,1,1.17486-3.1828,80.8431,80.8431,0,0,1,3.87854-9.687Z" transform="translate(8.56694 0.12386)" fill="#e4003b"/>
    <path d="M135.02264,51.34922l-1.302-.00085c-2.51715.05584-4.00751-3.30256-7.93994-3.2154l-1.44879-1.47217-1.41528.03138a3.71384,3.71384,0,0,1-2.55054-1.4502c-2.86835-1.6333-4.16223-3.299-8.2536-3.20831l-1.3628-4.67786c-1.22717,1.72425-1.26477.02808-2.71966-1.63409-1.42358.03155-1.386,1.7251-2.68219.05945-1.2981-1.47809-2.71552-1.44666-2.7489-2.95258-1.45282-1.66223-2.64057,1.56519-3.93244.08716a9.88047,9.88047,0,0,0,1.15009-4.91882C95.5835,21.686,91.59253,18.57822,88.80609,13.932c-5.42071-3.2738-9.83319-17.4826-16.29358-10.937A20.56078,20.56078,0,0,0,68.35413-.12386a4.16336,4.16336,0,0,0-2.47937,1.752l-1.41541.03137c-1.39026,1.5351-1.35687,3.04108-2.61542,3.069a3.26925,3.26925,0,0,1-2.607,3.4491l.03332,1.5036c-2.6029,3.26874-3.79077,6.484-6.59015,8.05029a6.789,6.789,0,0,1-1.18341,3.41767c-1.23138,1.53411-2.61541,3.07147-2.61541,3.07147.10815,4.88086,1.52563,4.84942,1.59674,8.059a70.74583,70.74583,0,0,0-7.93219,11.29107,20.2702,20.2702,0,0,0-6.42279,8.2417,6.19016,6.19016,0,0,0-2.57776,4.76514,22.734,22.734,0,0,0-3.79059,6.48651c-2.83276.06281-4.01617,3.4754-5.27271,3.50324-1.35046,3.0509-3.97876,4.80121-6.519,11.25982a11.27267,11.27267,0,0,0-3.79053,6.489s.03754,1.69354-2.79119,1.75628c.06671,3.00952-2.41272,4.76142-2.37519,6.455L7.65741,95.57072c-1.38806,1.72271-1.38806,1.72271-2.607,3.44409L2.4726,103.77988l5.058-.11212a4.82257,4.82257,0,0,1,1.58411-1.67517c3.90344-1.58343,5.24761-4.82428,9.18011-4.91144a15.87956,15.87956,0,0,1-2.60315,6.40577l2.13733-.04743c.29675-.93182.68225-1.665,1.98926-1.694-.03345-1.50854,2.44818-3.07025,2.37317-6.45508-2.58179-2.95623-7.82727,1.868-11.91437,1.95868,1.1875-3.2251,3.94549-6.47766,5.13287-9.715l1.25849-.0279C18.08386,87.47483,18.05029,85.959,19.43,84.234c3.88245-1.78309,9.21356-3.398,13.06256-6.69452,1.37964-1.73493,1.37964-1.73493,2.76172-3.27228a21.40284,21.40284,0,0,1,3.86127-3.29663c1.315-4.73706,5.12689-9.7049,7.73785-12.97382L46.749,53.28617c1.26685-.02808,2.57373-4.95038,2.57373-4.95038,3.90308-1.5932,5.18909-8.02411,9.07148-9.80707,0,0-1.18555,3.22754.1043,4.70563-1.18145,3.41992-5.206,6.51538-5.09753,11.411-2.515.05579-2.48163,1.56171-3.824,4.978,3.8949-1.7807,2.56543-4.95245,6.62348-6.54913a19.1262,19.1262,0,0,1,1.15008-4.91877c1.23145-1.534,4.13086,1.41278,2.64875-1.56536,2.68219-.05951,1.48211,2.97814.06671,3.00952l-2.57361,4.95514c-1.2334,1.53418-2.61127,3.25665-2.57373,4.95019l-3.82813,4.79291A20.31275,20.31275,0,0,0,47.141,70.7877s2.64465-1.753,2.71979,1.63672c1.38806-1.72779,2.58624-3.44916,2.607-3.44922l.04157-.00092a1.38646,1.38646,0,0,0,1.18359-1.5329,1.73565,1.73565,0,0,0-1.23236-.33978l-.00079.01312-.01-.00659.0108-.00653c.044-4.49023,2.554-4.66571,2.48908-7.59235,2.62829-1.75024,3.82226-4.968,5.16858-8.209,1.45306,1.67212.0711,3.20965,1.48645,3.17828.03338,1.50592,2.519-.05584,2.55236,1.45008l.00605-.00263c.10852,4.89575-3.79065,6.48389-5.11432,11.38416.03338,1.50592,1.384-1.53736,1.384-1.53736.06671,3.00952-2.61548,3.069-2.50708,7.95978l-2.68207.05945a6.31721,6.31721,0,0,1-1.34631,3.241A5.39044,5.39044,0,0,1,52.71,80.27024l-1.25653.02789.03333,1.50354a4.17846,4.17846,0,0,1-2.79511,1.75892c.03754,1.69354.03754,1.69354-1.221,1.72143l-1.22516,1.534a5.90131,5.90131,0,0,0-2.72027,4.95343c-2.517.05578-2.4502,3.06787-3.86572,3.09924a28.659,28.659,0,0,1,6.51477-11.25964l3.82812-4.79291c2.163-.22943,3.81592-2.38318,3.824-4.98291-2.54834-1.44763-3.86139,3.28686-5.2392,5.01428a4.18227,4.18227,0,0,0-2.48364,1.56177C44.72382,81.95414,43.346,83.6815,43.346,83.6815c-1.26044.028-2.44782,3.26544-2.44782,3.26544A6.33469,6.33469,0,0,1,39.554,90.18778s-1.42365.03156-2.61109,3.269c0,0-1.196,3.21784-2.54028,6.45862a7.21061,7.21061,0,0,0-1.22888,3.184l4.98382-.11047A27.9987,27.9987,0,0,0,39.793,99.759c3.82391-4.983,7.83606-8.08295,10.40979-13.033,5.20813-6.51544,11.79394-14.57062,16.99975-21.09094,1.22126-1.70911,3.82184-4.97779,5.23725-5.00916l2.5191-.05584,1.48651,3.178c1.41742-.03138,1.48859,3.17816,1.48859,3.17816a19.56472,19.56472,0,0,0,1.39832,6.37127s1.18762-3.22735,1.22522-1.53131a50.39106,50.39106,0,0,1,7.11535,15.65064,44.56389,44.56389,0,0,0,4.09949,8.00848c1.4801,3.1684,1.58862,8.06409,4.27069,8.00464a6.14642,6.14642,0,0,0,1.18335-3.4176c8.07617-4.887,11.9-9.67969,18.55688-14.72034,3.79065-6.484,9.01941-11.50305,11.52662-19.46271l1.25848-.02789,1.3819-1.53748c-.07508-3.38714,1.34851-3.4187,2.54034-6.45868,0,0,1.25855-.02789,1.18347-3.41265a1.4164,1.4164,0,0,0,1.382-1.53748ZM32.18292,61.53294A170.68106,170.68106,0,0,1,47.5376,41.66978l.38446.25256c-1.32648,1.63629-2.93262,3.75281-3.95349,5.03284A16.73427,16.73427,0,0,0,40.178,53.44175c-2.76428,3.08008-5.16992,8.012-9.18158,11.31232l.00079.00146-.00793.00513.00714-.00659C29.70306,63.0886,32.18292,61.53294,32.18292,61.53294Zm15.75757-13.1615a6.1938,6.1938,0,0,1-2.40869,4.94665,8.5073,8.5073,0,0,1-1.311,4.737l.03771,1.701a66.40069,66.40069,0,0,0-9.00067,13.00678c-5.27819,3.12634-10.54571,6.6325-15.824,9.75909v.00018l-.00867.00519.00867-.00537c-1.48413-2.97809,2.37323-6.45239,2.35412-6.447,1.37372-1.53974,2.72858-4.76837,3.94745-6.49l2.68219-.05945,3.85321-3.09888c2.72638-4.95837,6.5755-8.24,9.15345-13.00512a23.88551,23.88551,0,0,0,5.20593-6.51795c1.22919-1.72406,2.60687-3.44916,2.60687-3.44916a18.40407,18.40407,0,0,0,2.57782-4.76507c1.221-1.73139,1.18756-3.23737,4.02027-3.30011C54.53064,40.32114,50.63135,41.90684,47.94049,48.37144ZM49.8316,70.738l.02649-.03314.00824.00537C49.85327,70.71909,49.84485,70.72923,49.8316,70.738Zm78.639-9.81036c-1.28393-1.48816-2.55078-1.46008-3.8949,1.78076.01935-.00091.039-.00134.05842-.00134a1.55574,1.55574,0,0,1,1.39453,1.66351c-3.94971,6.48273-7.93256,11.27637-10.34314,16.03778a65.70841,65.70841,0,0,0-10.47669,10.0235l-1.4173.03137c-1.4154.03138-1.382,1.53742-1.34869,3.04358-2.517.05579-3.85742,3.4718-7.78985,3.559a25.67017,25.67017,0,0,1-3.04975-9.72363c2.764-3.07233,5.24591-4.80951,8.00348-8.08173l5.27856-3.328a28.52309,28.52309,0,0,0,3.84894-3.29639l1.06427-2.047.21247-.17469-.07453-.09063,1.37152-2.638a5.97965,5.97965,0,0,0-.5487-1.79053l.777-.777a5.70059,5.70059,0,0,1-.26172,1.06165c2.66772-.05915,5.31646-1.62458,5.24145-5.00946a5.1021,5.1021,0,0,0,4.02039-3.10248,16.76338,16.76338,0,0,1,3.79059-6.48657c2.67187-.05921,3.96569,1.419,6.79443,1.35626l.01447-.00293C131.20667,56.127,128.40741,57.8884,128.47064,60.92765Z" transform="translate(8.56694 0.12386)" fill="#e4003b"/>
    <path d="M36.70526,81.25315c1.23053-1.663,2.64588-1.69433,2.57691-4.80615-2.64142,1.51941-3.82727,4.83386-6.62757,6.35681-2.51092.05566-3.88745,1.55438-6.53314,3.25824,0,0-.03644-1.64441-1.293-1.61658-1.31238,4.76862-6.69226,3.43653-6.59112,7.999,2.67376-.05927,3.89563-1.74121,6.69616-3.26184l2.515-.05573c1.38507-1.49176,1.34863-3.13379,2.80029-1.52313C27.481,90.58945,26.32745,95.35453,25.14,98.49424c-1.03589,1.75378-2.029,3.32428-2.936,4.84833l1.53375-.034c.02081-.07849.04889-.14844.06934-.22729,5.263-4.68134,6.53064-10.91474,8.90814-17.175C34.08777,84.23057,36.70526,81.25315,36.70526,81.25315Z" transform="translate(8.56694 0.12386)" fill="#e4003b"/>
  </g>
</svg>
